<svg xmlns="http://www.w3.org/2000/svg" xmlns:xlink="http://www.w3.org/1999/xlink" version="1.0" id="katman_1" x="0px" y="0px" viewBox="0 0 244.07 241.37" style="enable-background:new 0 0 244.07 241.37;" xml:space="preserve" transform="matrix(1, 0, 0, 1, 0, 0)">
<style type="text/css">
	.st0{enable-background:new    ;}
	.st1{clip-path:url(#SVGID_2_);}
	.st2{fill:#0a3c4a;}
	.st3{fill:url(#SVGID_3_);}
	.st4{fill:url(#SVGID_4_);}
	.st5{fill:url(#SVGID_5_);}
	.st6{fill:url(#SVGID_6_);}
	.st7{fill:url(#SVGID_7_);}
	.st8{fill:url(#SVGID_8_);}
	.st9{fill:url(#SVGID_9_);}
	.st10{fill:url(#SVGID_10_);}
	.st11{fill:url(#SVGID_11_);}
	.st12{fill:url(#SVGID_12_);}
	.st13{fill:url(#SVGID_13_);}
	.st14{clip-path:url(#SVGID_15_);}
	.st15{fill:url(#SVGID_16_);}
	.st16{fill:url(#SVGID_17_);}
	.st17{fill:url(#SVGID_18_);}
	.st18{fill:url(#SVGID_19_);}
	.st19{fill:url(#SVGID_20_);}
	.st20{fill:url(#SVGID_21_);}
	.st21{fill:url(#SVGID_22_);}
	.st22{fill:url(#SVGID_23_);}
</style>
<g class="st0">
	<g class="st0">
		<defs fill="#0f4e61">
			<path id="SVGID_1_" class="st0" d="M0.01,120.49c-0.05-3.23,0.21-7.53,0.5-10.75c0.26-2.9,0.83-6.75,1.27-9.62     c0.48-3.13,1.45-7.24,2.27-10.3c0.73-2.75,1.91-6.35,2.81-9.05c1-2.98,2.64-6.88,3.95-9.74c1.35-2.95,3.27-6.85,4.95-9.63     c2.81-4.7,6.9-10.78,10.24-15.12c2.06-2.67,5.06-6.04,7.39-8.47c1.83-1.92,4.38-4.36,6.33-6.15c2.76-2.54,6.66-5.67,9.68-7.89     c1.99-1.47,4.73-3.3,6.8-4.64c2.11-1.38,5.06-3.01,7.25-4.26c1.83-1.05,4.36-2.28,6.27-3.18c2.89-1.36,6.83-3.01,9.83-4.12     c1.35-0.48,3.15-1.1,4.51-1.55C86.7,5.15,90.29,4.15,93,3.49c2.55-0.62,5.98-1.33,8.56-1.77c3-0.51,4.51-0.69,7.27-1.01     c0.93-0.11,2.16-0.21,3.09-0.3c0.86-0.08,2.02-0.15,2.88-0.2c0.85-0.05,1.97-0.11,2.81-0.13l0,0c1.62-0.02,3.76-0.09,5.38-0.08     c0.8,0.02,1.87,0.03,2.68,0.06c0.8,0.02,1.87,0.07,2.68,0.11c0.83,0.04,1.94,0.11,2.78,0.17c0.86,0.07,2,0.15,2.85,0.25     c0.9,0.09,2.1,0.22,3,0.33c0.92,0.1,2.15,0.29,3.07,0.41c1.06,0.15,2.47,0.38,3.53,0.57c1.15,0.21,2.7,0.5,3.85,0.74     c2.51,0.54,5.82,1.38,8.29,2.05c1.85,0.5,4.29,1.28,6.1,1.9c2.56,0.88,5.94,2.15,8.41,3.22c3.84,1.67,8.81,4.23,12.52,6.19l0,0     c29.51,16.77,48.92,49.65,48.84,89.95c-0.15,84.09-47.77,122.19-109.75,130.52c60.49-8.14,109.63-66.58,109.75-130.52     c0.08-40.31-19.33-73.18-48.84-89.95c2.71,1.57,6.26,3.77,8.84,5.54c2.07,1.42,4.77,3.41,6.73,4.97c2.49,1.96,5.72,4.7,8,6.91     c1.92,1.86,4.46,4.38,6.27,6.36c2.11,2.31,4.83,5.46,6.69,7.97c1.64,2.21,3.8,5.17,5.3,7.46c1.69,2.59,3.85,6.11,5.27,8.85     c1.28,2.48,2.96,5.8,4.09,8.36c1.25,2.83,2.81,6.67,3.76,9.61c1.75,5.44,3.63,12.86,4.69,18.47c0.59,3.13,1.06,7.35,1.32,10.52     c0.23,2.95,0.34,6.9,0.38,9.86c0.05,3.47-0.15,8.11-0.58,11.55c-0.36,2.89-0.87,6.73-1.34,9.6c-0.51,3.12-1.5,7.23-2.33,10.28     c-0.75,2.73-1.95,6.34-2.87,9.02c-1.02,2.99-2.68,6.86-4.01,9.72c-1.18,2.52-2.92,5.81-4.24,8.25c-1.53,2.83-3.86,6.45-5.67,9.09     c-1.96,2.85-4.71,6.54-6.95,9.15c-3.46,4.03-8.38,9.12-12.3,12.7c-2.79,2.53-6.73,5.67-9.79,7.87c-1.99,1.43-4.73,3.24-6.8,4.57     c-2.18,1.41-5.21,3.11-7.5,4.33c-1.84,0.98-4.34,2.21-6.24,3.09c-2.68,1.23-6.31,2.75-9.08,3.75c-2.65,0.95-6.23,2.11-8.94,2.87     c-4.26,1.19-8.61,2.17-12.92,2.91c-3.19,0.54-5.26,0.78-7.25,1c-0.92,0.11-2.16,0.21-3.09,0.3c-0.86,0.08-2.02,0.15-2.88,0.2     c-2.74,0.16-4.75,0.19-5.5,0.2c-0.8,0.01-1.87,0.01-2.68,0.01c-0.8-0.01-1.87-0.04-2.67-0.06c-0.81-0.01-1.89-0.06-2.7-0.11     c-1.67-0.1-3.9-0.26-5.57-0.41c-0.91-0.08-2.13-0.22-3.04-0.33c-0.95-0.12-2.23-0.29-3.19-0.44c-1.02-0.15-2.39-0.38-3.41-0.55     c-1.45-0.25-4.39-0.81-7.94-1.67c-1.57-0.39-3.66-0.94-5.22-1.41c-1.53-0.46-3.57-1.09-5.07-1.61c-2.56-0.88-5.93-2.15-8.41-3.22     c-3.85-1.67-8.87-4.15-12.53-6.19c-3.33-1.88-7.69-4.58-10.76-6.88c-2.59-1.94-6.06-4.51-8.49-6.64     c-1.99-1.75-4.61-4.12-6.48-5.98c-2.22-2.21-5.11-5.26-7.11-7.68c-3.48-4.22-7.78-10.15-10.73-14.76     c-1.69-2.63-3.68-6.32-5.09-9.1c-1.38-2.76-3.18-6.48-4.22-9.4c-1.91-5.35-4.32-12.55-5.59-18.09     c-1.11-4.88-2.09-11.5-2.49-16.49C0.16,127.39,0.06,123.45,0.01,120.49z" fill="#0f4e61"/>
		</defs>
		<clipPath id="SVGID_2_" fill="#0f4e61">
			<use xlink:href="#SVGID_1_" style="overflow:visible;" fill="#0f4e61"/>
		</clipPath>
		<g class="st1">
			<path class="st2" d="M187.89,19.17l2.36,1.49c-2.25-1.4-5.23-3.33-7.53-4.66C184.48,17.01,186.2,18.07,187.89,19.17" fill="#0f4e61"/>
			<linearGradient id="SVGID_3_" gradientUnits="userSpaceOnUse" x1="15.4689" y1="197.788" x2="194.1148" y2="197.788" fill="#0f4e61">
				<stop offset="0" style="stop-color:#12586b" fill="#0f4e61"/>
				<stop offset="0.1014" style="stop-color:#13667c" fill="#0f4e61"/>
				<stop offset="0.2199" style="stop-color:#0f7f95" fill="#0f4e61"/>
				<stop offset="0.3052" style="stop-color:#0891b2" fill="#0f4e61"/>
				<stop offset="0.4619" style="stop-color:#34afc6" fill="#0f4e61"/>
				<stop offset="1" style="stop-color:#7ed4e3" fill="#0f4e61"/>
			</linearGradient>
			<path class="st3" d="M172.39,224.42c6.19-2,16.39-4.07,21.72-8.79c-24.23-45.34-179.06-53.02-178.65-36.47     c0.01,0.26,0.18,0.58,0.26,0.82l2.04,3.45c2.94,4.37,7.04,10.09,10.29,14.24c-5.03-9.7,62.32-12.76,107.89,1.25     c18.33,5.64,30.14,10.34,33.31,18.23" fill="#0f4e61"/>
			<linearGradient id="SVGID_4_" gradientUnits="userSpaceOnUse" x1="40.6027" y1="219.2371" x2="152.0729" y2="219.2371" fill="#0f4e61">
				<stop offset="0" style="stop-color:#12586b" fill="#0f4e61"/>
				<stop offset="0.1014" style="stop-color:#13667c" fill="#0f4e61"/>
				<stop offset="0.2199" style="stop-color:#0f7f95" fill="#0f4e61"/>
				<stop offset="0.3052" style="stop-color:#0891b2" fill="#0f4e61"/>
				<stop offset="0.4619" style="stop-color:#34afc6" fill="#0f4e61"/>
				<stop offset="1" style="stop-color:#7ed4e3" fill="#0f4e61"/>
			</linearGradient>
			<path class="st4" d="M131.73,234.68c6.88-1.57,13.88-2.21,20.33-5.01c1.09-26.64-98.68-30.55-110.43-21.44     c-1.75,1.35-0.9,2.27-0.15,3.08l2.52,2.13c8.54,6.56,9.06,6.94,15.01,10.56c-3.2-2.36-0.81-4.21,7.08-5.47     c28.94-4.6,75.03,5.41,67.55,14.68C133.46,233.43,133.04,233.95,131.73,234.68" fill="#0f4e61"/>
			<g>
				<linearGradient id="SVGID_5_" gradientUnits="userSpaceOnUse" x1="73.877" y1="232.974" x2="124.0149" y2="232.974" fill="#0f4e61">
					<stop offset="0" style="stop-color:#12586b" fill="#0f4e61"/>
					<stop offset="0.1014" style="stop-color:#13667c" fill="#0f4e61"/>
					<stop offset="0.2199" style="stop-color:#0f7f95" fill="#0f4e61"/>
					<stop offset="0.3052" style="stop-color:#0891b2" fill="#0f4e61"/>
					<stop offset="0.4619" style="stop-color:#34afc6" fill="#0f4e61"/>
					<stop offset="1" style="stop-color:#7ed4e3" fill="#0f4e61"/>
				</linearGradient>
				<path class="st5" d="M121.82,236.48L121.82,236.48c4.9-2.16,0.38-4.54-1.8-5.46c-14.32-6.1-48.71-4.57-45.99,0.06      c0.4,0.67,1.74,1.26,2.31,1.51l0.75,0.3c6.77,2.49,7.04,2.59,11.28,3.8c5.61,1.49,5.61,1.49,8.62,2.11l0.65,0.14      c-5.72-1.34-5.24-2.57-3.82-3.37C98.04,233.2,115.77,233.35,121.82,236.48" fill="#0f4e61"/>
				<g>
					<linearGradient id="SVGID_6_" gradientUnits="userSpaceOnUse" x1="58.0399" y1="30.6329" x2="224.7218" y2="30.6329" fill="#0f4e61">
						<stop offset="0" style="stop-color:#12586b" fill="#0f4e61"/>
						<stop offset="0.1014" style="stop-color:#13667c" fill="#0f4e61"/>
						<stop offset="0.2199" style="stop-color:#0f7f95" fill="#0f4e61"/>
						<stop offset="0.3052" style="stop-color:#0891b2" fill="#0f4e61"/>
						<stop offset="0.4619" style="stop-color:#34afc6" fill="#0f4e61"/>
						<stop offset="1" style="stop-color:#7ed4e3" fill="#0f4e61"/>
					</linearGradient>
					<path class="st6" d="M213.14,43.95c0.02,0.03,0.02,0.04,0.04,0.06c5.35,4.2,7.8,6.12,11.54,11.48       c-1.88-2.67-4.34-6.27-6.35-8.85c-2.76-3.25-6.47-7.54-9.42-10.62c-4-3.61-4.42-3.99-8.06-6.44c0.12,0.12,0.25,0.25,0.38,0.36       c-0.14-0.13-0.29-0.27-0.43-0.41C160.7,5,93.8,2.69,77.46,8.34l-1.47,0.58c-7.25,3.17-9.43,4.13-17.95,9.03       C76.73,8.84,170.66,13.59,213.14,43.95z" fill="#0f4e61"/>
					<linearGradient id="SVGID_7_" gradientUnits="userSpaceOnUse" x1="27.4925" y1="59.9787" x2="241.5011" y2="59.9787" fill="#0f4e61">
						<stop offset="0" style="stop-color:#12586b" fill="#0f4e61"/>
						<stop offset="0.1014" style="stop-color:#13667c" fill="#0f4e61"/>
						<stop offset="0.2199" style="stop-color:#0f7f95" fill="#0f4e61"/>
						<stop offset="0.3052" style="stop-color:#0891b2" fill="#0f4e61"/>
						<stop offset="0.4619" style="stop-color:#34afc6" fill="#0f4e61"/>
						<stop offset="1" style="stop-color:#7ed4e3" fill="#0f4e61"/>
					</linearGradient>
					<path class="st7" d="M228.28,77.92c0,0.02,0.02,0.05,0.02,0.07l0,0c5.14,4.69,10.91,9.96,13.2,18.32       c-1.18-4.85-2.74-10.69-4.14-15.15l-2.48-6.46c-2.46-4.78-4.58-8.91-13.18-15.72c0.08,0.17,0.15,0.33,0.23,0.5       c-0.09-0.19-0.18-0.37-0.26-0.56C167.21,20.21,57.02,18.78,42.58,29.13l-2.88,2.52c-3.8,3.69-8.68,8.8-12.21,12.76       C40.74,33.11,171.7,33.95,228.28,77.92z" fill="#0f4e61"/>
					<linearGradient id="SVGID_8_" gradientUnits="userSpaceOnUse" x1="241.5011" y1="97.2344" x2="241.9402" y2="97.2344" fill="#0f4e61">
						<stop offset="0" style="stop-color:#12586b" fill="#0f4e61"/>
						<stop offset="0.1014" style="stop-color:#13667c" fill="#0f4e61"/>
						<stop offset="0.2199" style="stop-color:#0f7f95" fill="#0f4e61"/>
						<stop offset="0.3052" style="stop-color:#0891b2" fill="#0f4e61"/>
						<stop offset="0.4619" style="stop-color:#34afc6" fill="#0f4e61"/>
						<stop offset="1" style="stop-color:#7ed4e3" fill="#0f4e61"/>
					</linearGradient>
					<path class="st8" d="M241.5,96.31c0.15,0.64,0.3,1.25,0.44,1.85C241.81,97.53,241.66,96.91,241.5,96.31z" fill="#0f4e61"/>
					<linearGradient id="SVGID_9_" gradientUnits="userSpaceOnUse" x1="7.2306" y1="99.157" x2="244.0606" y2="99.157" fill="#0f4e61">
						<stop offset="0" style="stop-color:#12586b" fill="#0f4e61"/>
						<stop offset="0.1014" style="stop-color:#13667c" fill="#0f4e61"/>
						<stop offset="0.2199" style="stop-color:#0f7f95" fill="#0f4e61"/>
						<stop offset="0.3052" style="stop-color:#0891b2" fill="#0f4e61"/>
						<stop offset="0.4619" style="stop-color:#34afc6" fill="#0f4e61"/>
						<stop offset="1" style="stop-color:#7ed4e3" fill="#0f4e61"/>
					</linearGradient>
					<path class="st9" d="M244.06,120.26c-0.82-8.82-2.78-14.08-12.83-23.74c0.02,0.2,0.03,0.39,0.04,0.59       c-0.01-0.22-0.03-0.45-0.05-0.67C171.55,47.79,26.45,47.63,16.51,60.08l-1.52,2.66c-5.6,11.1-5.6,11.1-7.76,16.99       c10.88-15.52,169.96-10.46,223.69,38.81c0,0.03-0.01,0.05-0.01,0.08c7.2,7.65,12.56,14.45,10.63,26.53l0.61-3.11       c1.73-12.47,1.84-13.22,1.91-21.15V120.26z" fill="#0f4e61"/>
					<linearGradient id="SVGID_10_" gradientUnits="userSpaceOnUse" x1="6.344650e-03" y1="138.5651" x2="236.8886" y2="138.5651" fill="#0f4e61">
						<stop offset="0" style="stop-color:#12586b" fill="#0f4e61"/>
						<stop offset="0.1014" style="stop-color:#13667c" fill="#0f4e61"/>
						<stop offset="0.2199" style="stop-color:#0f7f95" fill="#0f4e61"/>
						<stop offset="0.3052" style="stop-color:#0891b2" fill="#0f4e61"/>
						<stop offset="0.4619" style="stop-color:#34afc6" fill="#0f4e61"/>
						<stop offset="1" style="stop-color:#7ed4e3" fill="#0f4e61"/>
					</linearGradient>
					<path class="st10" d="M227.32,138.37c0.05-0.21,0.11-0.41,0.16-0.61C171.85,86.72,5.29,83.33,2.04,98.63l-0.26,1.49       c-1.67,12.59-1.73,13.08-1.77,20.37v0.68c12.67-17.78,173.38-10.09,220.34,37.2c-0.01,0.03-0.02,0.05-0.02,0.07       c4.5,5.56,11.94,14.76,3.95,28.06c1.45-2.29,3.19-5,4.43-7.18c2.03-3.95,4.68-9.26,6.46-13.34c1.92-6.02,4.83-15.1-7.7-28.16       C227.41,138.01,227.36,138.19,227.32,138.37z" fill="#0f4e61"/>
					<linearGradient id="SVGID_11_" gradientUnits="userSpaceOnUse" x1="223.5579" y1="187.0631" x2="224.2645" y2="187.0631" fill="#0f4e61">
						<stop offset="0" style="stop-color:#12586b" fill="#0f4e61"/>
						<stop offset="0.1014" style="stop-color:#13667c" fill="#0f4e61"/>
						<stop offset="0.2199" style="stop-color:#0f7f95" fill="#0f4e61"/>
						<stop offset="0.3052" style="stop-color:#0891b2" fill="#0f4e61"/>
						<stop offset="0.4619" style="stop-color:#34afc6" fill="#0f4e61"/>
						<stop offset="1" style="stop-color:#7ed4e3" fill="#0f4e61"/>
					</linearGradient>
					<path class="st11" d="M224.26,186.5c-0.24,0.39-0.48,0.77-0.71,1.12C223.81,187.25,224.04,186.88,224.26,186.5z" fill="#0f4e61"/>
					<linearGradient id="SVGID_12_" gradientUnits="userSpaceOnUse" x1="188.4467" y1="220.9156" x2="191.3236" y2="220.9156" fill="#0f4e61">
						<stop offset="0" style="stop-color:#12586b" fill="#0f4e61"/>
						<stop offset="0.1014" style="stop-color:#13667c" fill="#0f4e61"/>
						<stop offset="0.2199" style="stop-color:#0f7f95" fill="#0f4e61"/>
						<stop offset="0.3052" style="stop-color:#0891b2" fill="#0f4e61"/>
						<stop offset="0.4619" style="stop-color:#34afc6" fill="#0f4e61"/>
						<stop offset="1" style="stop-color:#7ed4e3" fill="#0f4e61"/>
					</linearGradient>
					<path class="st12" d="M191.32,219.92c-0.85,0.58-1.81,1.25-2.88,1.99C189.47,221.23,190.43,220.58,191.32,219.92z" fill="#0f4e61"/>
					<linearGradient id="SVGID_13_" gradientUnits="userSpaceOnUse" x1="1.736" y1="176.7271" x2="216.9418" y2="176.7271" fill="#0f4e61">
						<stop offset="0" style="stop-color:#12586b" fill="#0f4e61"/>
						<stop offset="0.1014" style="stop-color:#13667c" fill="#0f4e61"/>
						<stop offset="0.2199" style="stop-color:#0f7f95" fill="#0f4e61"/>
						<stop offset="0.3052" style="stop-color:#0891b2" fill="#0f4e61"/>
						<stop offset="0.4619" style="stop-color:#34afc6" fill="#0f4e61"/>
						<stop offset="1" style="stop-color:#7ed4e3" fill="#0f4e61"/>
					</linearGradient>
					<path class="st13" d="M211.01,176.08c0.13-0.21,0.26-0.41,0.38-0.62c-47.27-50.37-207.65-45.9-209.65-34.67       c-0.02,0.12,0.01,0.28,0.02,0.41l1.11,5.63c1.26,4.74,3.07,11.03,4.65,15.67c-0.7-15.3,143.18-12.71,185.62,24.48       c0.99,0.86,3.3,2.9,5.53,5.94c-0.01,0.02-0.03,0.04-0.04,0.06c2.8,4.52,9.14,14.79-7.32,26.95c5.9-4.1,7.37-5.23,12.45-9.66       l5.58-5.32c4.38-4.9,13.5-15.1,1.99-29.43C211.24,175.7,211.13,175.89,211.01,176.08z" fill="#0f4e61"/>
				</g>
			</g>
		</g>
	</g>
	<g class="st0">
		<defs fill="#0f4e61">
			<path id="SVGID_14_" class="st0" d="M61.34,225.37c-2.11-1.23-4.9-2.91-6.94-4.25c-3.24-2.14-7.43-5.18-10.41-7.68     c-4.07-3.4-9.18-8.3-12.79-12.17c-2.37-2.54-5.3-6.16-7.38-8.95c-1.93-2.58-4.4-6.11-6.05-8.88c-1.42-2.39-3.35-5.56-4.55-8.07     c-1.36-2.84-3.25-6.6-4.4-9.54c-1.02-2.64-2.35-6.17-3.21-8.86c-0.95-3-2.11-7.04-2.74-10.13c-0.58-2.83-1.32-6.62-1.72-9.47     c-0.7-5.03-1.19-11.8-1.15-16.87c0.04-5.87,0.88-13.67,1.62-19.49c0.4-3.12,1.39-7.2,2.17-10.24c0.71-2.76,1.86-6.37,2.73-9.08     c0.96-2.95,2.53-6.78,3.79-9.61c1.13-2.54,2.83-5.87,4.11-8.33c1.43-2.75,3.6-6.27,5.31-8.85c1.5-2.29,3.66-5.23,5.3-7.42     c1.87-2.51,4.63-5.65,6.73-7.97c1.79-1.96,4.28-4.49,6.23-6.29c2.35-2.18,5.59-4.99,8.1-6.97c2.91-2.29,6.93-5.17,10.07-7.13     c1.82-1.14,4.29-2.63,6.17-3.67c3.66-2.04,8.71-4.43,12.56-6.07c1.64-0.71,3.88-1.55,5.57-2.16c2.68-0.95,6.28-2.07,9.02-2.82     c1.32-0.37,3.1-0.82,4.43-1.13c2.53-0.6,5.93-1.27,8.5-1.7c0.95-0.15,2.22-0.34,3.17-0.47c2.93-0.39,5.62-0.64,6.34-0.69     c0.86-0.06,2.01-0.15,2.87-0.2c0.84-0.05,1.97-0.11,2.81-0.13c0.81-0.02,1.89-0.06,2.7-0.06c0.81,0,1.88-0.02,2.68-0.02     c0.8,0.02,1.87,0.03,2.67,0.06c0.75,0.02,2.73,0.08,5.45,0.28c2.81,0.2,5,0.47,5.82,0.57c1.34,0.16,3.56,0.44,6.52,0.96     c1.1,0.19,2.55,0.46,3.63,0.7c2.49,0.56,5.8,1.35,8.26,2.01c1.64,0.45,3.81,1.12,5.42,1.67c1.88,0.62,4.39,1.5,6.23,2.24     c1.88,0.77,4.39,1.81,6.24,2.66c2.91,1.33,6.7,3.33,9.51,4.86c-17.31-9.83-38.11-14.12-60.47-11.11     c22.36-3.01,43.16,1.28,60.47,11.11l0,0c4.23,2.6,9.86,6.12,13.8,9.13c2.55,1.94,5.86,4.65,8.2,6.83     c1.95,1.83,4.52,4.3,6.36,6.24c2.3,2.43,5.26,5.77,7.28,8.42c1.67,2.18,3.86,5.12,5.39,7.4c1.78,2.65,4.04,6.27,5.54,9.09     c1.3,2.47,2.95,5.8,4.16,8.33c1.37,2.83,2.92,6.74,3.9,9.72c0.89,2.7,2.05,6.31,2.78,9.07c0.8,3.06,1.75,7.17,2.22,10.29     c0.43,2.88,0.98,6.73,1.24,9.63c0.28,3.21,0.53,7.52,0.46,10.74c-0.12,5.86-0.75,13.69-1.63,19.49c-0.5,3.34-1.5,7.74-2.37,11     c-0.73,2.74-1.89,6.36-2.79,9.05c-0.99,2.94-2.58,6.76-3.86,9.58c-1.15,2.54-2.86,5.84-4.17,8.3c-1.45,2.73-3.64,6.24-5.37,8.81     c-1.51,2.28-3.69,5.2-5.34,7.38c-1.89,2.5-4.63,5.67-6.78,7.94c-1.83,1.92-4.34,4.41-6.25,6.24c-2.33,2.22-5.62,4.96-8.16,6.92     c-1.96,1.52-4.65,3.44-6.69,4.85c-2.79,1.91-6.65,4.23-9.61,5.86c-1.84,1-4.33,2.28-6.23,3.19c-2.25,1.07-5.29,2.43-7.62,3.31     c-2.65,1-6.21,2.29-8.93,3.11c-2.63,0.81-6.16,1.75-8.84,2.36c-4.62,1.06-8.5,1.67-10.94,2c-1.89,0.25-4.41,0.52-6.3,0.69     c-2.32,0.19-4.28,0.27-5.71,0.34c-0.81,0.04-1.9,0.06-2.71,0.07c-0.8,0.01-1.87,0.01-2.68,0.01c-0.8-0.01-1.87-0.03-2.67-0.06     c-0.8-0.02-1.88-0.06-2.68-0.11c-1.3-0.07-3.27-0.18-5.58-0.41c-1.83-0.18-4.25-0.47-6.06-0.73c-7.06-1.04-14.04-2.7-20.77-4.92     c-1.89-0.63-4.39-1.51-6.22-2.26c-1.89-0.77-4.4-1.81-6.25-2.65C67.94,228.89,64.11,226.97,61.34,225.37z" fill="#0f4e61"/>
		</defs>
		<clipPath id="SVGID_15_" fill="#0f4e61">
			<use xlink:href="#SVGID_14_" style="overflow:visible;" fill="#0f4e61"/>
		</clipPath>
		<g class="st14">
			<linearGradient id="SVGID_16_" gradientUnits="userSpaceOnUse" x1="56.7262" y1="14.8988" x2="136.0618" y2="14.8988" fill="#0f4e61">
				<stop offset="0" style="stop-color:#7ed4e3" fill="#0f4e61"/>
				<stop offset="0.5381" style="stop-color:#34afc6" fill="#0f4e61"/>
				<stop offset="0.6948" style="stop-color:#0891b2" fill="#0f4e61"/>
				<stop offset="0.7801" style="stop-color:#0f7f95" fill="#0f4e61"/>
				<stop offset="0.8986" style="stop-color:#13667c" fill="#0f4e61"/>
				<stop offset="1" style="stop-color:#12586b" fill="#0f4e61"/>
			</linearGradient>
			<path class="st15" d="M58.04,17.95c7.38-4.21,9.13-5.21,17.95-9.03l1.47-0.58c-1.29,0.58-4.34,1.94-0.42,3.57     c11.81,4.89,48.76,0.58,47.07-5.5c-0.16-0.56-0.78-1.08-1.85-1.52c10.24-0.11,16.34,3.65,12.79,7.9     c-11.08,13.25-75.28,15.62-78.27,7.18C56.51,19.19,57.29,18.39,58.04,17.95" fill="#0f4e61"/>
			<linearGradient id="SVGID_17_" gradientUnits="userSpaceOnUse" x1="27.0771" y1="28.4838" x2="170.3526" y2="28.4838" fill="#0f4e61">
				<stop offset="0" style="stop-color:#7ed4e3" fill="#0f4e61"/>
				<stop offset="0.5381" style="stop-color:#34afc6" fill="#0f4e61"/>
				<stop offset="0.6948" style="stop-color:#0891b2" fill="#0f4e61"/>
				<stop offset="0.7801" style="stop-color:#0f7f95" fill="#0f4e61"/>
				<stop offset="0.8986" style="stop-color:#13667c" fill="#0f4e61"/>
				<stop offset="1" style="stop-color:#12586b" fill="#0f4e61"/>
			</linearGradient>
			<path class="st16" d="M154.84,5.72c25.37,10.35,16.2,24.08-3.06,32.44c-48.7,21.14-129.43,16.3-124.49,6.53     c0.04-0.09,0.14-0.19,0.2-0.28c3.52-3.96,8.41-9.07,12.21-12.76l2.88-2.52c-4.61,5.32,19.31,9.14,45.71,7.29     c42.1-2.96,72.27-16.31,60.9-26.94c-1.95-1.83-6-4.27-14.19-5.52C141.82,3.87,148.45,4.48,154.84,5.72" fill="#0f4e61"/>
			<linearGradient id="SVGID_18_" gradientUnits="userSpaceOnUse" x1="7.2289" y1="49.8906" x2="203.132" y2="49.8906" fill="#0f4e61">
				<stop offset="0" style="stop-color:#7ed4e3" fill="#0f4e61"/>
				<stop offset="0.5381" style="stop-color:#34afc6" fill="#0f4e61"/>
				<stop offset="0.6948" style="stop-color:#0891b2" fill="#0f4e61"/>
				<stop offset="0.7801" style="stop-color:#0f7f95" fill="#0f4e61"/>
				<stop offset="0.8986" style="stop-color:#13667c" fill="#0f4e61"/>
				<stop offset="1" style="stop-color:#12586b" fill="#0f4e61"/>
			</linearGradient>
			<path class="st17" d="M182.72,16.01c2.26,1.4,5.32,3.19,7.53,4.66c32.63,23.32,1.4,50.47-72.65,63.15     C58.34,93.97,6.89,88.45,7.23,79.73c4.73-11.54,4.73-11.54,7.76-16.99l1.52-2.66C12.72,74.15,124,73.67,170.6,47.5     c21.32-11.97,21.54-26.14,0.6-37.01C175.19,12.07,179.03,13.91,182.72,16.01" fill="#0f4e61"/>
			<linearGradient id="SVGID_19_" gradientUnits="userSpaceOnUse" x1="6.344650e-03" y1="82.9612" x2="228.2848" y2="82.9612" fill="#0f4e61">
				<stop offset="0" style="stop-color:#7ed4e3" fill="#0f4e61"/>
				<stop offset="0.5381" style="stop-color:#34afc6" fill="#0f4e61"/>
				<stop offset="0.6948" style="stop-color:#0891b2" fill="#0f4e61"/>
				<stop offset="0.7801" style="stop-color:#0f7f95" fill="#0f4e61"/>
				<stop offset="0.8986" style="stop-color:#13667c" fill="#0f4e61"/>
				<stop offset="1" style="stop-color:#12586b" fill="#0f4e61"/>
			</linearGradient>
			<path class="st18" d="M218.38,46.63c1.93,2.64,4.55,6.13,6.35,8.85c32.14,57.69-162.3,84.93-215.76,70.7     c-8.08-2.16-8.64-4.01-8.95-5.02v-0.68c0.56-13.04,0.56-13.28,1.77-20.37l0.26-1.49c10.16,20.72,200.63,6.73,213.9-41.98     c2.76-10.13-4.07-17.49-6.98-20.63C211.85,39.13,215.77,43.26,218.38,46.63" fill="#0f4e61"/>
			<linearGradient id="SVGID_20_" gradientUnits="userSpaceOnUse" x1="1.7638" y1="123.0112" x2="242.1004" y2="123.0112" fill="#0f4e61">
				<stop offset="0" style="stop-color:#7ed4e3" fill="#0f4e61"/>
				<stop offset="0.5381" style="stop-color:#34afc6" fill="#0f4e61"/>
				<stop offset="0.6948" style="stop-color:#0891b2" fill="#0f4e61"/>
				<stop offset="0.7801" style="stop-color:#0f7f95" fill="#0f4e61"/>
				<stop offset="0.8986" style="stop-color:#13667c" fill="#0f4e61"/>
				<stop offset="1" style="stop-color:#12586b" fill="#0f4e61"/>
			</linearGradient>
			<path class="st19" d="M237.36,81.16c1.54,5.05,3.41,11.85,4.58,17c6.96,69.23-215.19,85.02-233.76,65.3     c-0.24-0.25-0.45-0.67-0.65-0.96c-1.54-4.66-3.44-10.92-4.65-15.67l-1.11-5.63c8.54,16.51,211.72,7.31,233.37-49.68     c3.07-8.09,0.75-14.2-0.24-16.82L237.36,81.16" fill="#0f4e61"/>
			<linearGradient id="SVGID_21_" gradientUnits="userSpaceOnUse" x1="15.7312" y1="161.9358" x2="244.0606" y2="161.9358" fill="#0f4e61">
				<stop offset="0" style="stop-color:#7ed4e3" fill="#0f4e61"/>
				<stop offset="0.5381" style="stop-color:#34afc6" fill="#0f4e61"/>
				<stop offset="0.6948" style="stop-color:#0891b2" fill="#0f4e61"/>
				<stop offset="0.7801" style="stop-color:#0f7f95" fill="#0f4e61"/>
				<stop offset="0.8986" style="stop-color:#13667c" fill="#0f4e61"/>
				<stop offset="1" style="stop-color:#12586b" fill="#0f4e61"/>
			</linearGradient>
			<path class="st20" d="M244.06,120.89c-0.55,12.94-0.57,13.45-1.91,21.15l-0.61,3.11c-17.56,58.78-197.93,66.37-213.47,52.51     c-3.24-4.16-7.37-9.85-10.29-14.24l-2.04-3.45c19.98,21.99,222-0.18,228.24-57.59c0.07-0.64,0.06-1.49,0.09-2.12V120.89" fill="#0f4e61"/>
			<linearGradient id="SVGID_22_" gradientUnits="userSpaceOnUse" x1="41.4807" y1="196.8761" x2="235.1617" y2="196.8761" fill="#0f4e61">
				<stop offset="0" style="stop-color:#7ed4e3" fill="#0f4e61"/>
				<stop offset="0.5381" style="stop-color:#34afc6" fill="#0f4e61"/>
				<stop offset="0.6948" style="stop-color:#0891b2" fill="#0f4e61"/>
				<stop offset="0.7801" style="stop-color:#0f7f95" fill="#0f4e61"/>
				<stop offset="0.8986" style="stop-color:#13667c" fill="#0f4e61"/>
				<stop offset="1" style="stop-color:#12586b" fill="#0f4e61"/>
			</linearGradient>
			<path class="st21" d="M228.7,179.32c-1.53,2.5-3.51,5.88-5.14,8.31C191.41,229.19,74.98,232.47,59,224     c-8.83-5.69-9.56-6.15-15.01-10.56l-2.52-2.13c20.99,13.9,173.72,2.53,193.68-45.32C233.32,170.02,230.91,175.46,228.7,179.32" fill="#0f4e61"/>
			<linearGradient id="SVGID_23_" gradientUnits="userSpaceOnUse" x1="76.3426" y1="222.4673" x2="209.3587" y2="222.4673" fill="#0f4e61">
				<stop offset="0" style="stop-color:#7ed4e3" fill="#0f4e61"/>
				<stop offset="0.5381" style="stop-color:#34afc6" fill="#0f4e61"/>
				<stop offset="0.6948" style="stop-color:#0891b2" fill="#0f4e61"/>
				<stop offset="0.7801" style="stop-color:#0f7f95" fill="#0f4e61"/>
				<stop offset="0.8986" style="stop-color:#13667c" fill="#0f4e61"/>
				<stop offset="1" style="stop-color:#12586b" fill="#0f4e61"/>
			</linearGradient>
			<path class="st22" d="M203.77,210.26c-8.09,6.73-8.95,7.44-15.33,11.65c-30.93,18.46-77.49,19.67-90.8,17.03L97,238.8     c-5.27-1.18-5.58-1.25-8.62-2.11c-6.38-1.96-7.05-2.16-11.28-3.8l-0.75-0.3c21.24,7.16,104.75,0.08,133.02-27.64L203.77,210.26" fill="#0f4e61"/>
		</g>
	</g>
</g>
</svg>