<svg width="617" height="694" viewBox="0 0 617 694" fill="none" xmlns="http://www.w3.org/2000/svg">
<path d="M56.6975 295.598L60.8095 294.226L64.9215 295.598H76.8007L81.3696 294.226L83.654 297.427L87.3091 300.171H100.102L101.473 301.543V305.202L100.102 308.861L102.843 311.148H106.042V314.807L107.869 317.551L108.783 319.38L113.809 322.582L117.921 325.783L121.119 327.613L123.86 331.272L125.688 332.186V333.101L126.145 333.558M126.145 333.558H131.627L135.283 330.814V328.07H133.455L131.627 326.241V324.411L133.455 322.582L138.481 321.667L139.852 318.923V307.946L136.653 305.66V296.97L138.481 290.567L140.765 289.652L143.964 286.908L145.791 288.737L144.877 290.567L148.532 292.854H154.472L157.67 294.683L160.868 298.342L157.67 299.257V309.318L152.644 310.233V313.892H161.325V310.233L163.61 309.318L164.524 307.032V304.287H173.661L176.403 307.032L180.515 307.489V300.171H182.342L183.713 296.97L185.084 294.683L180.515 294.226L179.601 290.567L180.515 287.823V285.536L183.713 284.164H192.394V276.846H190.109L187.368 278.675H178.23L175.489 276.846L173.661 275.017L172.748 271.358L173.661 267.241L175.489 266.327L178.23 263.583L180.515 261.753L182.342 260.381L185.084 258.094L187.368 257.18L190.109 254.435H193.765L197.42 251.691H199.704L201.989 248.947H203.359L207.928 245.288V242.087M126.145 333.558L129.343 339.047L127.972 342.248H126.145L123.403 343.62L122.033 345.45V358.713M117.007 165.25H112.895L108.783 166.622L103.3 172.111V174.855L101.473 179.886L98.7314 184.002L96.9038 189.033L94.6194 191.777L90.9643 193.607L86.8522 196.808L83.1971 199.095L81.3696 203.211L78.6282 209.614H77.2576L74.9731 213.73L73.1455 219.219H58.9819L55.7837 222.42H50.7579L49.3873 219.219L45.7321 215.102L42.5339 213.73L39.7926 216.932L36.5943 219.219L34.4828 223.792L33.3961 226.536L29.2841 229.738L26.5427 234.769L23.3445 237.513V244.373L24.7152 246.66L28.3703 248.947H33.3961L36.5943 250.319V266.327L39.7926 270.443L45.7321 271.815H48.0166V279.59L53.4993 285.993V288.28L55.7837 292.854V299.257L53.4993 303.373L50.7579 304.745H45.7321V301.086H44.3615L42.5339 303.373H39.7926L35.6805 304.745L33.3961 306.574H29.2841L26.5427 306.117L24.1546 303.373H7.62939L6.43957 306.117V310.69L4.9311 314.5L0.5 316.179V319.838L2.32756 324.869L5.0689 327.155L8.72402 330.814L11.9223 334.473L16.0343 336.303H18.7756L23.3445 339.047H26.5427L31.1116 336.303L35.6805 334.473H39.7926L41.1632 333.101L44.3615 332.186H45.7321L44.3615 334.473L42.5339 336.303L39.7926 341.791L35.6805 344.535L33.3961 345.907L28.3703 346.365H24.7152L21.9738 348.194H18.7756L16.0343 345.907L13.2929 348.194V352.31L14.2067 354.597L17.4049 358.713L18.7756 360.543L21.9738 361.915L23.3445 365.116L26.5427 366.717L31.1116 371.977L33.3961 373.806L36.5943 375.635L39.7926 378.837L42.5339 380.209L45.7321 382.953L48.0166 384.783L50.7579 386.155H55.7837L61.2664 384.783L64.4646 382.953L68.5766 380.209L73.1455 378.837L77.2576 376.55L80.9127 373.806L82.7402 369.69V365.116L80.9127 361.915V358.713H84.1109V353.225H88.2229L86.8522 354.597V358.713H90.5074L89.5936 360.543V365.116L94.6194 366.717M117.007 165.25V157.018L122.033 150.615L129.343 144.212L132.084 141.468V131.863L129.343 125.46L132.084 122.259L135.283 118.142L139.852 114.941L145.334 112.654L148.076 109.91M117.007 165.25L117.464 165.708L121.576 168.452H127.059M148.076 109.91L145.334 107.166M148.076 109.91L147.619 109.453M145.334 107.166H137.11L133.912 105.794V99.3906H129.343V97.1038L126.602 92.9876L122.033 89.3287L119.291 85.6699L122.033 83.3831V76.5227H119.291V71.4917L122.033 69.6623L123.86 66.4608H117.007V62.3446H119.291V58.2283H114.723V52.2827H119.291V49.5H122.033L123.86 45.5H129.343L129.8 41.5L127.059 38H123.86V35L117.464 33L114.723 28H108.783L103.3 24L104.931 17.5L108.783 14H111.431L114.723 8.5V5.5H127.059V2H139.852L143.964 0.5H147.619L151.274 2H153.101L158.127 0.5H159.498L160.412 5.5L164.067 8.5L167.722 14H171.377L175.032 17.5L180.515 21L183.713 24L185.541 28L188.739 30L194.221 31.5L196.506 35V38H207.014L212.04 35L219.35 30L223.006 26.5L225.747 24H232.143L234.428 28L238.083 31.5L241.738 33H245.85V35L249.505 38V41.5L248.134 47.5L247.678 52.2827L245.85 54.1121L245.393 55.5L240.431 56V58.2283L239.431 59.5H236.255V64.174L234.428 69.6623H224.833L225.747 73.5V76.5227L224.833 79.7242V83.3831L229.859 85.6699H234.428V101.22L232.143 105.794H229.859L227.118 107.166H221.178V101.22L217.523 105.794L215.695 103.964L211.38 101.373M145.334 107.166L147.619 109.453M223.006 135.065L222.092 133.693L219.807 132.32L220.721 130.491L222.092 126.832L220.721 125.46L219.35 123.631L219.807 121.801L220.721 119.057L219.807 117.228L216.609 114.026L215.695 111.282V107.166L211.126 101.22L211.38 101.373M223.006 135.065H224.376L228.031 131.406L228.945 132.778L230.316 136.437L232.6 138.724L235.342 141.925L238.083 144.212H245.85L247.678 145.127L249.505 148.328L251.333 149.7L253.617 153.359L260.927 156.103L264.126 158.39L266.41 160.677L266.867 162.506L264.126 165.25L261.384 167.08L260.014 168.909L257.272 171.653L255.902 173.94V177.142L254.988 179.886L253.617 182.173V186.289L252.703 188.576L249.505 191.777V196.808M223.006 135.065L223.919 135.979M249.505 196.808L253.617 199.552L257.272 200.924H260.927L264.126 202.754L267.781 206.87L272.807 209.614L276.462 212.816L278.746 214.645L281.944 216.475L284.686 217.389L288.341 218.761H293.824L296.565 222.878H304.789L306.16 225.164V228.823H315.754L317.582 232.025L318.952 230.195V228.823H323.521L325.349 230.195H328.776M249.505 196.808L248.134 197.265L245.393 195.893H241.738L238.083 194.521H236.255L233.514 193.149L230.316 189.948L227.574 189.49L223.462 186.746L222.092 184.459L223.462 181.258L221.178 179.886L218.437 177.599L216.152 175.77L214.325 173.483L212.954 168.909L208.842 167.994V173.483L207.014 175.77H202.445L200.161 173.483L201.075 167.994V166.622L202.445 163.421V161.134L200.161 159.305L197.42 157.933M419.468 249.862L416.727 253.063H414.899V253.978H405.762L403.934 254.893L400.279 253.978L397.538 253.063L396.167 249.862H393.882L392.055 253.063H389.77L385.658 249.862H383.374L379.262 248.49L375.15 247.575L374.236 248.49L372.409 249.862L368.754 248.49V244.831L366.469 243.001L364.642 244.831L361.9 245.746H357.788V244.831L354.133 243.001L353.219 241.172H350.935L346.366 238.885L344.995 235.684V232.482H343.168L338.599 230.195L336.771 228.823H334.487L332.202 230.195H328.776M419.468 249.862L420.398 245.746V241.172L417.838 238.428L416.727 234.312M419.468 249.862L421.136 248.947L422.21 250.687L423.58 253.063L422.21 255.807M416.727 234.312L417.838 232.025V226.536L419.468 223.792V221.963L420.398 217.847H422.667L424.951 216.475L428.606 215.102H435.003V220.591L436.83 221.963L435.916 225.622V232.482L435.003 234.312M416.727 234.312L420.398 237.158H426.335L428.606 235.597L433.632 235.077L435.003 234.312M435.003 234.312L435.916 238.428L438.658 241.172V243.001H448.252L451.451 245.746M451.451 245.746H461.502M451.451 245.746H456.02M461.502 245.746L464.7 243.001H467.899L471.554 244.831H494.855L498.51 243.001H503.536M461.502 245.746H456.02M503.536 243.001V228.823H496.683L494.855 225.622L496.683 220.591L499.881 221.963H503.536L506.277 220.591H509.019L514.958 219.676L517.7 216.475V212.816H519.984L523.639 208.699V206.87H526.838V204.583L531.406 201.839L533.234 200.467H536.889L541.458 198.638L542.372 197.723L546.484 196.808L549.225 194.064L553.337 191.32V185.831L556.535 184.917L562.018 185.831L563.846 188.118H567.044L569.785 189.49L573.44 190.405L575.725 188.118L578.923 187.204L581.207 184.917L583.035 184.002L583.949 183.087H591.259L592.173 184.002H594L594.914 184.917L594 188.118L594.914 189.49L598.112 192.235L599.026 194.064L599.94 196.808V198.638L598.569 201.382L598.112 202.754L601.768 201.382L603.138 201.839L604.966 203.669L606.793 204.583L607.25 207.327H610.448L612.276 206.87L615.017 208.699L615.931 210.986V217.389L612.733 219.676L610.905 220.591L608.164 222.878L606.793 225.164L607.25 228.823L608.164 231.11L610.905 233.397V237.97H609.078L606.793 235.684L604.966 234.769L603.138 233.397L600.854 232.482L596.742 233.397H593.087L588.975 234.769L581.664 242.087L578.009 245.288L573.44 247.118L569.785 249.404L568.871 252.149L567.501 254.435L568.415 257.18L569.785 260.838L571.156 263.125L568.871 266.327L566.587 267.699V270.9L564.759 271.815L562.932 273.644L561.561 275.931L560.191 276.389L558.82 277.418M503.536 243.001L507.648 240.715H512.674L515.415 238.885H520.441L524.553 240.715H537.346L538.26 239.8L541.915 238.885L543.286 235.226L545.113 233.397L546.027 230.195L551.053 226.536H554.708L557.449 222.878H560.647L561.561 221.505L567.044 220.591L569.328 219.219H573.44L576.639 218.304L578.009 215.56H584.406L586.69 216.932L585.776 219.219L584.406 222.878V226.536L585.776 230.195V233.397H582.121L578.009 234.312L576.639 235.226L575.268 236.598L573.44 237.513L571.613 240.715M533.234 311.605H535.518L539.174 312.063H542.372L544.199 312.977H549.225L550.596 309.776V307.032L552.423 303.83L553.337 299.714L554.708 297.427L556.078 295.598L557.449 294.226L558.363 292.396L560.191 290.109L561.104 286.45V285.536L558.82 283.706L557.449 282.334L558.363 277.761L558.82 277.418M533.234 311.605L532.32 312.977V320.295L533.234 324.411V331.729L532.32 333.101L529.579 334.016L527.751 336.303L526.838 338.132V344.992L527.751 347.737V351.853L523.639 355.512L522.726 357.798L520.441 356.426L518.614 355.512H516.786L516.329 356.884H514.958V351.853L514.501 347.279H514.045V342.248L512.674 339.504L511.303 336.303L510.389 333.101V326.241L509.476 324.869L508.105 320.295L507.191 318.923M533.234 311.605L531.406 310.69V308.861H524.553V302.001M507.191 318.923H503.993M507.191 318.923H506.734M503.993 318.923L502.165 320.295L500.795 322.582V326.241H498.967L498.51 329.9V334.016H493.028L492.114 332.644L489.829 329.9L488.916 329.442L488.459 326.241L485.717 323.497L485.26 319.838V314.807L486.631 312.977L489.829 310.69L491.657 309.776L494.398 307.946L496.226 307.489L500.795 305.202V303.83L502.165 302.001L504.907 300.629L506.277 297.427L507.191 294.683V291.939L508.105 290.567H510.389L512.674 290.109V288.737L510.389 287.365L510.034 287.264M503.993 318.923H506.734M453.278 260.381L455.563 263.583L456.476 265.869V269.528L457.39 271.358L459.218 272.089M453.278 260.381H451.451M453.278 260.381H452.821M451.451 260.381L450.537 264.497H449.623L446.882 263.583L443.684 261.296L440.942 259.009M451.451 260.381H452.821M433.092 255.807H428.149L423.58 260.381L420.398 263.583V265.869L423.58 268.613L425.408 269.528L427.235 273.644L430.434 276.846L433.632 276.389L436.373 278.675L438.658 281.42L438.201 283.249H433.632L429.063 284.164L426.322 285.993V287.823L419.468 292.396V296.055L420.398 298.342L422.667 300.629L424.494 301.543L426.322 302.915H432.718V307.946L433.632 310.233V312.063L431.347 313.892L429.063 315.264V317.551L430.434 320.752L431.347 321.667L433.632 323.039V327.155L438.201 331.729L436.373 336.303V339.504L438.201 342.706L438.658 347.279V350.481L440.485 354.597V356.426L437.287 357.341L440.485 360.543V368.318L437.287 366.488H431.347V360.543L429.063 366.488H425.408L422.667 364.201L420.398 360.543V357.341L422.667 354.597L419.468 352.768L418.098 350.481L416.727 347.279L416.27 348.651L416.727 350.481L418.555 353.225L419.011 355.054V356.884L417.641 359.171L415.813 361.457L412.158 363.287L408.96 365.116M408.96 365.116L405.762 366.031M408.96 365.116L407.589 365.508M405.762 366.031L402.107 366.488L398.451 368.318L396.624 370.147V371.977L393.882 374.263V380.209L395.253 382.953L396.624 387.069L395.253 390.728L392.969 391.643V395.302L388.4 397.131L386.572 399.418L384.745 403.077L383.374 404.449L382.46 403.077L380.633 402.62L379.719 401.248L378.805 400.79L379.719 404.906V406.279H376.978L374.236 407.193L370.581 406.736H368.754L365.555 404.906H361.9L360.073 406.736L358.245 409.023V411.31L357.331 412.682L356.417 416.34L353.676 419.085L351.392 422.286M405.762 366.031L407.589 365.508M351.392 422.286L349.107 424.573L346.366 428.689L343.625 432.348L338.142 437.836L334.944 439.666L333.116 441.495H331.289L329.004 443.782L325.349 446.069L323.978 448.356L321.237 451.557L318.952 452.929L317.582 455.673L313.927 459.332L311.642 460.704L307.987 462.534L301.134 464.82L297.479 467.107V478.541L296.565 479.913L293.367 481.743L290.168 483.115L286.513 484.487H272.807V489.518L271.436 491.805V494.091L268.238 496.836L266.41 497.75H265.039L263.669 495.921H259.557L256.359 497.75L254.074 500.952L251.333 505.068V506.44L249.048 510.099V521.533L251.333 526.564V530.223L250.419 532.51L251.333 537.541L254.074 543.944V546.688M351.392 422.286L346.366 421.829L343.625 424.573H340.426V429.146H333.116L329.004 428.689L327.177 426.402L325.349 424.573L323.978 422.286H318.952L317.582 424.573V430.519H313.927V438.751H307.987V440.123L301.134 440.581V438.751H299.306V436.007H297.479L296.565 437.836V446.984L293.367 446.069L290.168 448.356H287.884L283.772 450.185V451.557L279.203 452.014M254.074 546.688L251.333 548.975L247.221 548.06L245.393 550.347L243.109 553.091H233.057L230.773 556.75L227.118 557.664H221.635L218.894 559.036L217.523 562.695L215.695 564.982L213.411 565.44H211.126L208.842 563.61M254.074 546.688V555.835L252.703 560.409V564.982L251.333 567.726L250.419 571.842L249.048 573.215L247.221 575.501L245.393 576.873L243.109 580.99H240.367V584.191L242.195 585.563V593.338L240.367 594.71L243.109 596.997V616.206L242.195 617.121H234.885L233.057 618.493L231.686 620.323V625.811L228.945 626.726L226.204 630.842L224.833 633.586L226.204 637.245L228.945 638.16H234.885L235.798 641.361L233.057 639.989H223.462L218.894 641.361L217.523 642.733L214.325 644.105H212.04L208.842 648.221V655.082L207.014 657.826L203.359 660.57L199.704 662.857L197.42 663.772L195.135 665.144H189.653L185.997 661.485M185.997 661.485L184.627 660.57L182.799 658.741L181.429 656.911L179.601 654.167H178.23L176.86 649.594L175.946 648.221L172.748 644.105L171.377 642.733V638.16L170.006 634.958V633.586H171.377L170.006 626.726V624.896L168.179 623.067L166.808 618.493L164.067 613.92V612.547L162.239 607.516L159.955 606.144L158.584 602.028V599.284L154.472 592.424L153.101 589.68L151.274 585.563H149.903L146.705 580.99L145.334 577.788L143.05 573.672L140.765 570.013L139.395 567.269L138.481 563.61M185.997 661.485L188.739 657.826V654.167L187.825 651.88V649.594L186.454 646.392L188.282 642.733L188.739 639.989L191.937 638.617L192.851 634.958H189.653L188.739 630.842V620.323L187.825 617.121H186.454L183.713 618.493L181.429 617.121L179.601 613.92V610.261L178.23 606.144V602.028L176.86 599.284L173.661 598.369L172.748 594.71H170.006L168.179 591.052L171.377 588.765L170.006 585.563M138.481 563.61L137.11 560.409H135.739V553.091L134.826 548.975V545.316L133.455 542.114V540.742L130.257 537.998V531.138L127.515 530.223V526.107L126.145 524.277L125.231 522.905L123.403 520.618L121.576 519.704L121.056 518.767M138.481 563.61L142.136 565.897L145.334 567.726L147.162 570.928L149.903 573.215L153.101 576.873L156.756 578.703L158.584 580.99L162.239 582.362L165.437 584.191H168.179L170.006 585.563M114.723 502.324V505.525H116.55V506.898L117.921 510.556L119.291 512.386V515.587L121.056 518.767M114.723 502.324L112.895 499.122L109.697 495.464V489.975L107.869 488.146L106.499 484.487V479.456L105.128 475.797V473.053L103.757 467.565V464.82L102.387 461.619V458.417L100.559 454.759V452.014L98.7314 448.813V446.069L96.4469 441.038V435.092L94.1625 432.805V414.968L92.7918 412.682L90.5074 408.565V401.248M114.723 502.324L116.093 501.867L117.921 499.58H124.774M90.5074 401.248L92.7918 395.759L94.1625 389.356L96.4469 386.155L94.1625 382.953L92.7918 378.837L90.5074 376.55V369.69L92.7918 367.86L94.6194 366.717M90.5074 401.248H94.1625L94.6194 397.589L97.3607 396.674L100.559 398.961H105.585V391.643H106.955V387.984L109.697 389.356H113.352L115.636 387.984V378.837L109.697 376.55L110.611 375.635H113.352L117.921 371.977L119.748 369.69L122.49 367.86M94.6194 366.717L96.4469 365.574M170.006 585.563H173.661L176.86 588.765H179.601L181.429 585.563L184.627 584.191H191.937L193.765 581.904H197.877L198.333 579.618V576.873L193.765 575.501V573.215L195.135 570.928V565.897H197.877L199.247 562.695L200.618 561.323H203.359L206.101 561.781L208.842 563.61M208.842 563.61L211.126 561.323L214.325 560.409V556.75L217.523 553.091V551.719H213.411V548.06L212.04 545.316H208.842L207.014 543.944L206.101 542.114L205.187 539.37H203.359L201.532 538.913L199.247 539.37L193.765 542.114L191.937 540.742L189.653 538.913L188.739 539.827L186.454 542.572H183.713L182.799 540.742V537.998L181.429 536.169L181.885 534.5L183.713 533.179L185.541 533.424L185.931 535L186.454 536.169H189.653H191.48V530.68L188.739 529.766H185.541L181.885 530.68L181.053 533.179M180.972 533.424L181.053 533.179M194.678 440.123L195.135 441.953V450.185L194.678 451.557L193.765 455.673L196.506 457.96L195.135 459.332V460.704L191.937 462.534L191.48 464.82L191.937 467.107V474.882L191.48 479.913H189.653V483.115H191.48L194.678 484.487V488.603L193.765 491.805L191.48 492.719H186.454L185.541 493.634V500.495L183.713 503.239V506.44L185.541 508.727L186.454 511.928L183.713 513.301H178.23L178.687 516.045L180.058 517.874L178.687 519.704L177.773 520.618V523.362L178.687 524.734L180.058 527.479H180.972V530.223L181.053 533.179M194.678 440.123H191.937L191.48 438.751L190.566 437.836L188.739 438.751L186.454 441.953L183.713 443.782H180.972L180.058 446.069V450.185H177.773L176.403 453.844H170.463L169.092 457.96V461.619H166.808L162.696 460.704L160.868 461.619L158.127 460.704L154.929 459.332H153.558L152.188 462.534L153.558 464.82V469.851H145.791L144.42 472.596H142.136L140.308 471.224L137.567 472.596L136.653 475.797L132.998 476.712V479.913L130.257 478.999H127.515L125.231 479.913V483.115L127.515 486.316H130.257V491.805L128.429 493.634L124.774 499.58M194.678 440.123L195.135 436.922L197.42 436.007L199.247 434.177L200.618 432.348L202.902 430.519V429.146L200.618 426.402L199.247 424.573L201.989 419.085L202.902 418.17L205.644 419.085L207.471 419.542L209.756 418.17V415.883L211.126 413.139L212.04 410.852V405.821L215.695 406.736H221.178L223.006 409.023L224.376 411.767H227.118L228.031 410.852H231.686L232.143 412.224L235.342 413.139L237.626 414.054H240.824V411.767H243.109L244.022 413.139L245.393 414.968L246.307 417.713L245.393 418.17V424.573L246.307 426.86V430.519L248.591 432.348H251.333M124.774 499.58L125.231 501.867V515.587L124.774 516.045L122.947 516.502L121.056 518.767M251.333 432.348L253.389 433.263M251.333 432.348L253.16 433.161M279.203 452.014L276.919 451.557H269.608L268.238 450.185L266.867 446.984L265.496 444.239H263.212L261.384 440.581V437.836L260.471 436.922L257.729 435.092L255.445 434.177L253.389 433.263M279.203 452.014V445.611L281.031 442.41L285.143 440.123L287.884 436.464L291.082 432.805L292.91 430.061V419.085L291.082 414.511V412.224L287.884 408.108L286.513 405.364V403.077L289.712 400.79L294.737 403.077L298.392 405.364L303.418 408.108L306.616 405.364L305.246 400.79H298.392V381.124H300.22L303.418 377.008H314.84C314.079 376.855 313.013 376.367 314.84 375.635C317.034 373.074 318.496 370.605 318.952 369.69L319.866 366.946L321.694 364.201L323.064 361.457V354.597L325.349 353.682L326.72 352.31L330.375 348.194L332.659 347.541M122.49 367.86H123.86M122.49 367.86H117.921L113.352 365.574L114.266 361.457L115.636 360.543L119.748 358.713H122.033M253.16 433.161V425.488L255.445 424.116V419.085L256.359 415.883H258.186L259.557 418.17H263.669V412.682L261.841 410.852L259.557 408.108L256.359 405.821V403.077L259.1 401.248V398.961H256.359V395.759H260.471V391.643L256.359 389.356L258.186 386.155V385.24L257.729 382.953L255.445 378.837L260.471 373.806L259.822 372.507M253.16 433.161L253.389 433.263M306.16 313.892V315.264L302.961 316.179H289.712L287.427 313.892H282.858L281.944 319.838V323.039H287.427L289.255 324.411L290.625 325.326L291.996 325.783L294.28 327.613V330.357L291.996 332.186L287.427 336.76H284.686V342.248L281.944 343.163L279.66 344.992L278.746 347.279H274.177L272.35 348.194L270.979 350.938V352.768L269.151 355.969H266.867L265.496 357.798V362.372L263.669 364.201V371.062L260.014 372.434L259.822 372.507M306.16 313.892H314.84L317.582 309.318L318.952 307.489M306.16 313.892V296.055L302.961 294.226L298.849 294.683H296.565L294.28 292.396L291.996 290.567L288.341 289.652L284.686 287.823L281.944 285.536L279.66 284.164H274.177L270.979 287.823L269.151 289.652H265.496L264.583 287.823L265.496 284.164H260.014L256.815 285.536H254.074V280.047H247.221L246.307 281.42L244.022 282.792L241.738 285.536H235.798L232.6 282.792H226.661L224.833 281.877V276.846H222.549L219.807 278.675L217.066 280.047V285.536L219.807 289.652V292.396L221.178 296.055H222.549L224.833 300.171V304.287H222.549C221.635 305.202 219.259 306.483 217.066 304.287C214.873 302.092 212.802 300.629 212.04 300.171L210.213 299.257V292.396L208.842 290.567V287.823H210.213L212.04 285.536V281.42L210.213 280.047V276.846L212.04 275.017H215.695L217.066 271.815H219.807L221.178 268.613L222.549 266.327L224.833 261.753V258.094L227.118 257.18V251.691L222.549 246.203L217.98 245.288H215.695L210.213 243.001L207.928 242.087M318.952 307.489H321.237L323.064 309.318V312.52L325.349 315.264L329.004 319.838V321.667H331.745V325.783L332.659 328.985L334.944 332.186L338.142 334.473H339.969V339.047L336.314 339.961L334.944 340.876L332.659 342.248V347.541M318.952 307.489L319.866 304.287L321.237 302.001L319.866 299.714V298.342H322.151L323.064 294.683L321.237 292.396L318.496 290.567L317.582 286.908V284.621L319.866 281.42L322.151 279.59L325.349 278.218L329.918 275.474L332.202 273.644L334.487 271.358H336.771L339.513 272.272L344.081 271.358L346.366 269.528L343.168 266.327L339.969 265.869L336.771 263.583L334.487 261.296L334.03 259.466L333.116 257.637H335.857V255.35L334.03 253.063L331.289 251.691L334.487 248.49H339.513V243.916L335.857 241.172L333.116 238.885L331.289 235.684L329.004 232.025L328.776 230.195M207.928 242.087L203.359 240.715H201.075L196.963 243.459L192.851 245.746L190.566 244.373L192.851 240.715L196.049 237.97L194.221 235.226V232.025L190.566 228.366V224.25L187.825 221.048M390.684 352.31L388.4 350.481L385.202 349.109L382.003 348.194L380.176 346.365L376.521 344.992L375.607 347.279V354.597L373.779 357.341L368.754 355.969L366.926 354.597H360.986C360.255 354.597 359.768 355.512 359.616 355.969H356.874L354.133 353.682L356.874 351.395V347.279H353.219L346.366 348.194L341.797 350.481L337.685 349.109L333.573 347.279L332.659 347.541M390.684 352.31L394.339 354.597L397.081 355.969L399.365 357.341L400.736 359.628L402.107 361.457H404.848L405.762 362.372L406.675 364.201L407.589 365.116V365.508M390.684 352.31L392.512 350.481V347.279L389.77 343.62L388.4 342.248L386.115 340.876L385.202 339.504L384.288 338.589V337.217L385.202 335.845V334.473H380.176L377.434 333.101L376.521 332.186L373.779 330.814V323.497L375.607 321.21H376.521L378.348 322.582H382.003L382.917 321.21L385.202 318.923H389.77L390.684 316.636L392.512 314.349L396.167 312.063L397.994 314.349L400.736 315.721L402.563 315.264V309.776H406.675L407.589 307.489H408.96L410.787 305.202V303.373L412.158 302.458V299.714L413.529 297.427H415.356V290.567L413.072 286.45V280.962M539.174 677.035L539.103 677.159M539.103 677.159L537.346 680.237L536.432 682.981L537.346 687.097V690.299L540.544 691.671V693.5H542.372L543.286 691.671H544.656V687.097L542.372 684.81V682.066L541.458 681.151L540.544 679.322L539.103 677.159ZM127.059 168.452L129.8 172.111L131.171 177.142V180.801L132.998 183.087H136.196V180.801L138.938 183.087L143.964 185.374H149.903V188.118L151.274 192.235L153.101 194.521V198.638L155.843 202.296L158.127 205.955L160.412 209.157L162.239 211.444V218.304L165.437 221.048L166.808 216.017L170.463 214.645V211.444L175.032 216.017L176.86 214.645L178.23 211.444L179.144 210.986L180.972 214.645V221.048L183.713 224.25L187.825 221.048M127.059 168.452L131.171 169.367L132.998 168.452H138.024L140.765 169.824L143.507 170.281L144.877 174.398L146.248 176.684L147.619 174.398L150.817 173.025H162.239L164.524 172.111L166.351 169.824V166.622L168.636 164.336H171.377L175.032 162.964L177.773 158.39L180.515 157.933L180.972 155.646L178.687 151.072L178.23 147.413L180.058 145.584M187.825 221.048L190.109 219.676H191.937L193.765 217.847L194.678 214.188V210.986L192.851 205.955L190.566 203.669V198.638C190.566 197.906 190.262 197.418 190.109 197.265L188.282 194.979L185.997 193.149C186.363 192.417 186.759 190.71 186.911 189.948V182.173L185.084 180.801M184.943 180.801V178.971L185.084 176.684L185.541 174.398L187.825 171.653L188.739 168.452L190.109 166.622L192.851 164.336C193.003 163.878 193.49 162.781 194.221 162.049L196.506 159.762V157.475L192.851 156.561H190.109L188.282 154.731L186.911 152.902L185.997 149.243L183.713 147.413L180.058 145.584M180.058 145.584L176.86 143.297V139.181L173.661 134.607H165.437V128.204L162.239 123.631V121.344L158.127 117.228H155.843V111.282H158.127L160.412 107.166L159.041 103.964H155.843L153.101 107.166H149.903L147.619 109.453M122.033 358.713H126.145L128.429 356.884V360.543L131.627 364.201L136.196 365.116L141.679 366.717L143.964 369.69H146.705L152.188 371.977H160.868L163.153 371.062L164.524 375.635L167.265 377.922L169.092 376.55H170.463L176.403 375.635L177.773 371.062L180.058 367.86L180.972 365.116L186.454 364.201H194.678L195.135 366.717L191.937 369.69L199.247 371.977H202.902L207.471 371.062L209.756 367.86L212.04 366.717H215.695L217.066 367.86H219.35L224.376 366.717L229.859 365.116L232.143 364.201H235.342L236.255 363.744L238.54 366.488H240.824L243.109 365.574L244.022 366.717L248.591 367.86V365.574H253.617L256.359 369.232L259.1 371.062L259.822 372.507M159.498 103.964V94.817C160.107 95.1219 161.508 95.5488 162.239 94.817C162.97 94.0853 166.808 90.7008 164.067 92.9876C164.98 92.0729 166.991 90.152 167.722 89.7861L170.463 88.414L170.92 86.5846H173.204C173.661 86.5846 176.403 85.6698 176.86 86.5846C177.225 87.3163 178.839 89.0238 179.601 89.7861C180.972 90.2435 182.799 91.1582 183.713 91.6155M183.713 91.6155C184.627 92.0729 186.911 94.3597 187.825 94.817C190.109 95.2744 191.937 95.2744 192.851 95.2744C193.765 95.2744 194.221 94.817 195.135 94.817C196.049 94.817 197.42 92.9876 197.877 92.9876C198.242 92.9876 199.552 93.2925 200.161 93.445L200.618 93.9023C201.989 95.2744 202.445 96.6465 202.902 97.1038C203.359 97.5612 203.816 99.3906 203.359 99.848C204.273 101.22 205.644 101.677 206.101 101.677C206.466 101.677 207.776 101.373 208.385 101.22L210.669 100.305L211.38 101.373M183.713 91.6155V89.7861L178.23 83.3831L175.032 81.5H171.377L173.661 76.5227L171.377 75L168.636 73.5L166.351 69.6623H164.067V66.4608L160.412 64.174H158.127L157.431 61V55.5H167.931L173.931 52.5L176.431 51H183.431V48L184.931 44H187.931L188.931 41.5V40.5L187.931 41.5L184.931 35.5L185.431 34.5H187.931L191.931 35.5L195.431 37.5H196.431M211.583 101.677L211.38 101.373M322.608 298.342H330.832L332.659 296.512L334.944 298.342L337.685 300.171L341.34 301.543L342.711 304.745H345.909L348.65 300.171L350.478 298.342L352.305 302.458H354.59L355.961 301.543L358.702 300.171H365.098L368.297 298.342V292.854H373.779L377.434 295.598L378.805 298.342L381.09 300.171L383.374 303.373H384.745L386.572 301.543V300.171L387.943 296.512L391.598 297.427H394.339C396.167 297.427 396.928 296.207 397.081 295.598V288.737L400.279 286.45L404.848 282.792L406.219 280.962H413.072M413.072 280.962V276.846L417.184 275.474L419.468 273.644L418.555 271.358L415.356 269.071L414.443 268.156L413.072 266.327V264.497L415.356 263.125L417.184 261.753L420.382 259.466L422.21 254.893M432.718 255.807L435.46 256.722H437.287V253.978H439.572L440.942 255.807V259.466M197.194 157.933L197.877 155.188L199.247 154.731L200.161 153.359L199.247 149.7V146.956L200.618 142.84L202.902 139.638L206.101 137.351L209.756 136.437L212.04 135.522L214.782 136.437L217.98 137.809L221.178 137.351M221.178 137.351L223.462 139.638H225.747V137.809L223.919 135.979M221.178 137.351L222.092 135.522L223.919 135.979M452.821 260.381L454.192 258.552H456.02V253.521L457.847 251.691V248.947L456.02 246.66V245.746M459.218 272.272V272.089M510.034 287.264L507.191 286.45L504.907 283.249H499.881C499.881 283.097 499.698 282.883 498.967 283.249C498.236 283.615 495.617 284.316 494.398 284.621H489.829L487.545 282.334H482.976L480.235 283.249H477.493L473.838 284.164H466.528L463.787 282.334H461.959L458.304 281.42L456.476 280.505L455.563 277.761L457.847 275.474V273.644L459.675 272.272L459.218 272.089M510.034 287.264L510.846 286.45C511.76 285.841 514.41 284.255 517.7 282.792C520.989 281.328 519.984 281.267 519.07 281.42V278.675H517.7L516.329 276.389L514.958 273.187L510.846 270.443C510.085 269.986 508.196 269.071 506.734 269.071V265.412C507.344 264.802 508.836 263.4 509.933 262.668C511.029 261.936 509.476 262.363 508.562 262.668H498.053L495.312 264.497L493.941 267.241H491.2L489.829 269.071H487.088L484.804 267.241L481.148 265.412H477.95L474.295 264.497H465.614C464.518 264.497 463.025 265.107 462.416 265.412L460.588 267.241L459.218 269.071V272.089M505.821 299.257L508.562 302.001L510.846 307.489M510.846 307.489L509.933 310.69V313.892L508.562 316.179L506.734 318.923M510.846 307.489L512.674 305.66L517.7 304.287L519.07 302.001L522.269 301.086L524.553 302.001M524.553 302.001V298.799L527.294 295.598V290.567L529.122 288.28L531.406 283.706L532.32 282.792M532.32 282.792L534.148 279.133V276.846L531.406 275.474L532.32 271.815L535.518 269.528L537.346 267.241L538.26 265.869L541.001 267.241C543.194 266.144 545.875 261.906 546.941 259.924L549.225 256.265L551.053 253.063L554.708 250.776H555.622L557.449 248.947L561.561 245.288L565.216 243.001L569.328 240.715H571.613M532.32 282.792H537.346L540.087 279.133V275.474L541.915 274.102H545.113L549.225 275.474H551.053L553.337 274.102L555.622 273.187H557.449L558.82 274.102V277.418M558.82 277.761V277.418M571.613 240.715V248.032M518.157 561.781L520.441 554.92V549.432L524.096 544.401L525.924 546.688V557.664L524.096 561.781V583.734L518.157 579.16V593.338L511.76 588.765L514.045 583.734V579.16L516.329 575.044V566.354L518.157 561.781ZM511.76 604.315H514.045L515.415 608.431L516.329 612.547H511.76V604.315ZM507.191 588.765V591.509L508.562 591.966L509.476 591.509V589.68L509.019 588.765H507.191ZM541.001 575.501L541.915 576.873L544.199 575.501L543.742 573.672L542.372 572.757H541.001V575.501ZM550.596 547.602V549.889L551.51 551.261H552.88V548.06L551.51 547.602H550.596ZM518.157 639.074V643.648L519.527 644.563H522.269L523.182 642.733V639.074H518.157ZM523.182 658.741V661.942L527.294 663.314L529.122 661.942L527.294 658.741H523.182ZM536.432 654.167L539.174 653.252V658.741H536.432V654.167ZM533.691 661.942H537.346V669.717H535.518V670.632L534.605 671.547H530.95L530.036 669.717V665.601H533.691V661.942ZM97.3607 659.198V663.314H100.102L101.93 661.942V660.57L100.102 659.198H97.3607ZM110.611 621.695L111.524 620.78V619.865H114.266V622.609L112.895 623.524H110.611V621.695ZM111.524 604.772V607.059L112.895 607.974L113.809 607.516V604.772H111.524ZM90.9643 585.563V588.765L91.878 589.222L94.1625 588.765L93.7056 586.021L91.878 585.106L90.9643 585.563ZM97.3607 590.137V592.881L98.7314 593.796L99.6452 592.881V590.594L97.3607 590.137ZM93.2487 594.253L92.7918 596.083L90.9643 598.827V602.028L93.7056 602.486L95.0763 602.028V595.168L93.7056 594.253H93.2487ZM87.766 606.144V607.974L90.5074 608.431L89.834 606.144H87.766ZM89.1367 610.718L89.834 612.547H91.878L90.9643 610.718H89.1367ZM79.542 603.858L79.9989 608.431L82.2833 607.974L81.3696 603.858H79.542Z" stroke="black"/>
<path d="M188.5 116.5C179.112 116.5 171.5 124.056 171.5 133.375C171.5 137.045 172.712 140.412 174.726 143.17C174.763 143.236 174.768 143.309 174.809 143.373L186.143 160.248C186.668 161.03 187.554 161.5 188.5 161.5C189.446 161.5 190.332 161.03 190.857 160.248L202.191 143.373C202.232 143.309 202.237 143.236 202.274 143.17C204.288 140.412 205.5 137.045 205.5 133.375C205.5 124.056 197.888 116.5 188.5 116.5ZM188.5 139C185.371 139 182.833 136.481 182.833 133.375C182.833 130.269 185.371 127.75 188.5 127.75C191.629 127.75 194.167 130.269 194.167 133.375C194.167 136.481 191.629 139 188.5 139Z" fill="#EF4444"/>
<path d="M188.5 519.5C179.112 519.5 171.5 527.056 171.5 536.375C171.5 540.045 172.712 543.412 174.726 546.17C174.763 546.236 174.768 546.309 174.809 546.373L186.143 563.248C186.668 564.03 187.554 564.5 188.5 564.5C189.446 564.5 190.332 564.03 190.857 563.248L202.191 546.373C202.232 546.309 202.237 546.236 202.274 546.17C204.288 543.412 205.5 540.045 205.5 536.375C205.5 527.056 197.888 519.5 188.5 519.5ZM188.5 542C185.371 542 182.833 539.481 182.833 536.375C182.833 533.269 185.371 530.75 188.5 530.75C191.629 530.75 194.167 533.269 194.167 536.375C194.167 539.481 191.629 542 188.5 542Z" fill="#14B8A6"/>
<path d="M205.5 441.5C196.112 441.5 188.5 449.056 188.5 458.375C188.5 462.045 189.712 465.412 191.726 468.17C191.763 468.236 191.768 468.309 191.809 468.373L203.143 485.248C203.668 486.03 204.554 486.5 205.5 486.5C206.446 486.5 207.332 486.03 207.857 485.248L219.191 468.373C219.232 468.309 219.237 468.236 219.274 468.17C221.288 465.412 222.5 462.045 222.5 458.375C222.5 449.056 214.888 441.5 205.5 441.5ZM205.5 464C202.371 464 199.833 461.481 199.833 458.375C199.833 455.269 202.371 452.75 205.5 452.75C208.629 452.75 211.167 455.269 211.167 458.375C211.167 461.481 208.629 464 205.5 464Z" fill="#F59E42"/>
<path d="M244.5 528.5C235.112 528.5 227.5 536.056 227.5 545.375C227.5 549.045 228.712 552.412 230.726 555.17C230.763 555.236 230.768 555.309 230.809 555.373L242.143 572.248C242.668 573.03 243.554 573.5 244.5 573.5C245.446 573.5 246.332 573.03 246.857 572.248L258.191 555.373C258.232 555.309 258.237 555.236 258.274 555.17C260.288 552.412 261.5 549.045 261.5 545.375C261.5 536.056 253.888 528.5 244.5 528.5ZM244.5 551C241.371 551 238.833 548.481 238.833 545.375C238.833 542.269 241.371 539.75 244.5 539.75C247.629 539.75 250.167 542.269 250.167 545.375C250.167 548.481 247.629 551 244.5 551Z" fill="#A855F7"/>
<path d="M101.5 396.5C92.1118 396.5 84.5 404.056 84.5 413.375C84.5 417.045 85.712 420.412 87.7265 423.17C87.7626 423.236 87.7682 423.309 87.8093 423.373L99.1427 440.248C99.6683 441.03 100.554 441.5 101.5 441.5C102.446 441.5 103.332 441.03 103.857 440.248L115.191 423.373C115.232 423.309 115.237 423.236 115.274 423.17C117.288 420.412 118.5 417.045 118.5 413.375C118.5 404.056 110.888 396.5 101.5 396.5ZM101.5 419C98.3706 419 95.8333 416.481 95.8333 413.375C95.8333 410.269 98.3706 407.75 101.5 407.75C104.629 407.75 107.167 410.269 107.167 413.375C107.167 416.481 104.629 419 101.5 419Z" fill="#3B82F6"/>
<path d="M423.5 297.5C414.112 297.5 406.5 305.056 406.5 314.375C406.5 318.045 407.712 321.412 409.726 324.17C409.763 324.236 409.768 324.309 409.809 324.373L421.143 341.248C421.668 342.03 422.554 342.5 423.5 342.5C424.446 342.5 425.332 342.03 425.857 341.248L437.191 324.373C437.232 324.309 437.237 324.236 437.274 324.17C439.288 321.412 440.5 318.045 440.5 314.375C440.5 305.056 432.888 297.5 423.5 297.5ZM423.5 320C420.371 320 417.833 317.481 417.833 314.375C417.833 311.269 420.371 308.75 423.5 308.75C426.629 308.75 429.167 311.269 429.167 314.375C429.167 317.481 426.629 320 423.5 320Z" fill="#22C55E"/>
</svg>
