<svg width="1670" height="265" viewBox="0 0 1670 265" fill="none" xmlns="http://www.w3.org/2000/svg">
<path d="M910.587 153.53V3.02972H1027.59C1031.39 3.02972 1045.09 10.7297 1048.69 13.4297C1072.69 31.6297 1077.09 64.3297 1074.79 92.6297C1072.09 125.63 1049.99 153.53 1015.29 153.53H910.587ZM935.287 128.93H1020.79C1025.39 128.93 1037.49 121.43 1040.59 117.33C1054.59 99.1297 1053.69 42.7297 1030.59 30.2297C1019.69 24.2297 1012.39 26.5297 1001.69 26.4297C980.287 26.3297 958.587 27.3297 937.387 25.1297L935.187 27.0297V128.93H935.287ZM569.287 3.02972C567.087 3.02972 556.587 8.02973 553.987 9.62973C539.987 17.9297 532.887 32.8297 531.587 48.8297C530.287 66.0297 529.687 109.23 535.687 124.13C540.087 135.23 558.387 152.13 570.587 152.13H683.487V128.83H573.387C559.587 128.83 553.387 98.2297 556.287 87.8297H679.387V64.5297H556.287C554.787 41.3297 559.687 25.1297 585.787 24.8297C615.787 24.4297 678.787 26.3297 678.787 26.3297L683.487 26.1297V3.02972H569.287ZM1130.89 37.9297C1130.89 29.4297 1141.19 20.1297 1148.09 29.0297L1226.09 142.53C1238.99 161.23 1274.69 156.53 1284.39 136.73C1285.89 133.73 1289.59 120.13 1289.59 117.33V3.72973L1287.49 1.62973H1264.89V118.63C1264.89 119.13 1260.99 127.93 1260.39 128.53C1256.39 132.53 1248.49 132.53 1244.99 127.63C1218.99 93.6298 1197.39 54.3297 1171.59 20.4297C1164.59 11.1297 1160.49 4.72973 1147.79 3.22973C1133.49 1.52973 1119.59 4.82972 1112.29 18.0297C1110.39 21.5297 1106.19 34.4297 1106.19 37.9297V153.53H1130.79V37.9297H1130.89ZM1479.69 3.72973C1478.49 1.72973 1476.99 1.82973 1474.99 1.62973C1449.79 -1.37027 1394.09 0.129733 1368.39 3.22973C1349.59 5.42973 1329.79 24.4297 1327.89 43.4297C1326.29 59.4297 1326.09 101.23 1328.49 116.63C1330.99 132.53 1350.89 152.13 1366.89 152.13H1479.79V128.83H1369.69C1363.39 128.83 1352.59 116.83 1352.59 110.33V90.4297C1352.59 90.4297 1355.59 90.4297 1355.99 90.4297H1472.99V67.1297C1472.99 67.1297 1471.39 67.1297 1470.89 67.1297H1352.59V45.9297C1352.59 43.0297 1357.19 34.6297 1359.59 32.4297C1363.09 29.0297 1373.29 24.7297 1377.89 24.7297H1479.79V3.72973H1479.69ZM333.987 3.02972C327.587 3.02972 315.187 9.12975 310.687 13.9297C306.287 18.6297 301.787 28.9297 301.787 35.1297V152.13H327.787C328.187 151.13 326.387 150.53 326.387 150.03V89.2297H433.087V68.0297L430.987 65.9297H326.487L328.087 31.2297C328.587 29.7297 334.987 26.2297 335.387 26.2297H434.587V2.92975H333.987V3.02972ZM1575.49 152.03L1598.79 152.13V27.0297C1599.99 25.0297 1601.49 25.1297 1603.49 24.9297C1603.49 24.9297 1634.89 25.2297 1647.39 25.2297C1654.19 25.2297 1669.89 25.2297 1669.89 25.2297V3.72973H1507.09V24.9297H1573.49L1575.59 27.0297V148.83M766.287 128.93C759.687 128.93 747.787 117.03 747.787 110.43V3.72973L747.587 3.12973H723.187V111.93C723.187 128.13 744.087 152.33 760.787 152.33H874.987V129.03H766.287V128.93ZM491.987 3.72973L489.887 1.62973H467.987L465.887 3.72973V146.03C465.887 147.23 466.587 151.33 467.987 152.23H491.887V3.72973H491.987Z" fill="url(#paint0_linear_73_49)"/>
<path d="M301.787 200.93H310.087V263.23H301.787V200.93Z" fill="#4C4C4C"/>
<path d="M362.286 200.93H370.586V263.23H363.886L331.786 216.63V263.23H323.486V200.83H329.886L362.286 247.73V200.93Z" fill="#4C4C4C"/>
<path d="M403.086 264.43C397.286 264.43 392.286 263.03 388.186 260.33C384.086 257.63 381.186 253.83 379.486 249.13L386.586 245.03C388.986 252.53 394.586 256.33 403.286 256.33C407.586 256.33 410.786 255.43 413.086 253.73C415.386 251.93 416.486 249.63 416.486 246.73C416.486 243.73 415.386 241.53 413.086 240.03C410.786 238.53 407.086 236.93 401.786 235.33C399.186 234.43 397.186 233.73 395.786 233.33C394.386 232.83 392.686 232.13 390.686 231.03C388.686 230.03 387.086 228.93 386.086 227.83C385.086 226.73 384.186 225.33 383.386 223.53C382.586 221.73 382.186 219.73 382.186 217.43C382.186 212.03 384.086 207.73 387.886 204.53C391.686 201.33 396.286 199.73 401.786 199.73C406.686 199.73 410.986 200.93 414.686 203.43C418.386 205.93 421.086 209.23 422.886 213.33L415.886 217.33C413.186 210.93 408.486 207.73 401.686 207.73C398.286 207.73 395.586 208.53 393.486 210.23C391.386 211.93 390.386 214.13 390.386 217.03C390.386 219.73 391.386 221.83 393.286 223.23C395.286 224.63 398.586 226.13 403.486 227.73C405.186 228.33 406.386 228.73 407.086 229.03C407.786 229.33 408.986 229.73 410.486 230.23C411.986 230.73 413.086 231.23 413.786 231.53C414.486 231.93 415.486 232.43 416.686 233.03C417.886 233.73 418.786 234.33 419.386 234.93C419.986 235.53 420.686 236.23 421.486 237.13C422.286 238.03 422.886 238.83 423.186 239.73C423.586 240.63 423.886 241.63 424.086 242.83C424.386 244.03 424.486 245.23 424.486 246.53C424.486 252.03 422.486 256.33 418.486 259.63C414.686 262.83 409.486 264.43 403.086 264.43Z" fill="#4C4C4C"/>
<path d="M433.986 200.93H442.286V263.23H433.986V200.93Z" fill="#4C4C4C"/>
<path d="M515.787 232.33V236.03C515.787 244.13 512.987 250.93 507.387 256.33C501.787 261.73 494.387 264.43 485.187 264.43C475.687 264.43 467.787 261.33 461.587 255.03C455.387 248.73 452.287 241.13 452.287 232.03C452.287 223.03 455.387 215.33 461.587 209.03C467.787 202.73 475.587 199.63 484.987 199.63C490.787 199.63 496.087 201.03 500.887 203.73C505.687 206.53 509.387 210.13 511.987 214.63L504.887 218.83C503.087 215.43 500.387 212.73 496.787 210.63C493.187 208.53 489.187 207.53 484.887 207.53C477.787 207.53 471.887 209.83 467.287 214.53C462.687 219.23 460.387 224.93 460.387 231.83C460.387 238.73 462.687 244.53 467.287 249.13C471.887 253.73 477.887 256.13 485.187 256.13C491.387 256.13 496.487 254.63 500.387 251.53C504.287 248.43 506.587 244.53 507.387 239.63H484.487V232.13H515.787V232.33Z" fill="#4C4C4C"/>
<path d="M564.487 200.93H572.687V263.23H564.487V235.23H534.187V263.23H525.886V200.83H534.187V227.33H564.487V200.93Z" fill="#4C4C4C"/>
<path d="M625.987 200.93V208.73H607.487V263.23H599.286V208.73H580.886V200.93H625.987Z" fill="#4C4C4C"/>
<path d="M669.186 200.93H677.486V263.23H669.186V200.93Z" fill="#4C4C4C"/>
<path d="M729.687 200.93H737.987V263.23H731.286L699.187 216.63V263.23H690.886V200.83H697.286L729.687 247.73V200.93Z" fill="#4C4C4C"/>
<path d="M791.186 200.93V208.73H772.786V263.23H764.586V208.73H746.186V200.93H791.186Z" fill="#4C4C4C"/>
<path d="M807.687 255.43H836.687V263.23H799.386V200.83H836.187V208.63H807.687V227.83H833.987V235.63H807.687V255.43Z" fill="#4C4C4C"/>
<path d="M854.986 255.43H881.886V263.23H846.686V200.83H854.986V255.43Z" fill="#4C4C4C"/>
<path d="M898.486 255.43H925.386V263.23H890.186V200.83H898.486V255.43Z" fill="#4C4C4C"/>
<path d="M933.686 200.93H941.986V263.23H933.686V200.93Z" fill="#4C4C4C"/>
<path d="M1015.49 232.33V236.03C1015.49 244.13 1012.69 250.93 1007.09 256.33C1001.49 261.73 994.086 264.43 984.886 264.43C975.386 264.43 967.486 261.33 961.286 255.03C955.086 248.73 951.986 241.13 951.986 232.03C951.986 223.03 955.086 215.33 961.286 209.03C967.486 202.73 975.286 199.63 984.686 199.63C990.486 199.63 995.786 201.03 1000.59 203.73C1005.39 206.53 1009.09 210.13 1011.69 214.63L1004.59 218.83C1002.79 215.43 1000.09 212.73 996.486 210.63C992.886 208.53 988.886 207.53 984.586 207.53C977.486 207.53 971.586 209.83 966.986 214.53C962.386 219.23 960.086 224.93 960.086 231.83C960.086 238.73 962.386 244.53 966.986 249.13C971.586 253.73 977.586 256.13 984.886 256.13C991.086 256.13 996.186 254.63 1000.09 251.53C1003.99 248.43 1006.29 244.53 1007.09 239.63H984.186V232.13H1015.49V232.33Z" fill="#4C4C4C"/>
<path d="M1033.89 255.43H1062.89V263.23H1025.59V200.83H1062.39V208.63H1033.89V227.83H1060.19V235.63H1033.89V255.43Z" fill="#4C4C4C"/>
<path d="M1111.59 200.93H1119.89V263.23H1113.19L1081.09 216.63V263.23H1072.79V200.83H1079.19L1111.59 247.73V200.93Z" fill="#4C4C4C"/>
<path d="M1162.59 264.43C1153.19 264.43 1145.39 261.33 1139.19 255.03C1132.99 248.83 1129.99 241.13 1129.99 232.03C1129.99 222.93 1133.09 215.23 1139.19 209.03C1145.29 202.83 1153.09 199.63 1162.59 199.63C1168.29 199.63 1173.49 201.03 1178.29 203.73C1183.09 206.43 1186.79 210.13 1189.49 214.83L1182.29 219.03C1180.49 215.63 1177.89 212.83 1174.29 210.83C1170.79 208.73 1166.89 207.73 1162.59 207.73C1155.39 207.73 1149.49 210.03 1144.99 214.73C1140.49 219.33 1138.19 225.13 1138.19 232.13C1138.19 239.03 1140.49 244.83 1144.99 249.43C1149.49 254.03 1155.39 256.43 1162.59 256.43C1166.89 256.43 1170.79 255.43 1174.29 253.33C1177.79 251.23 1180.49 248.53 1182.29 245.13L1189.49 249.23C1186.89 253.83 1183.19 257.53 1178.39 260.33C1173.49 263.03 1168.29 264.43 1162.59 264.43Z" fill="#4C4C4C"/>
<path d="M1207.09 255.43H1236.09V263.23H1198.79V200.83H1235.59V208.63H1207.09V227.83H1233.39V235.63H1207.09V255.43Z" fill="#4C4C4C"/>
<path d="M1289.99 200.93H1298.29V263.23H1289.99V200.93Z" fill="#4C4C4C"/>
<path d="M1370.09 200.93V263.23H1361.89V214.43L1341.49 248.43H1340.49L1319.99 214.43V263.23H1311.69V200.83H1321.09L1341.09 233.93L1360.89 200.83H1370.09V200.93Z" fill="#4C4C4C"/>
<path d="M1406.09 200.93C1411.89 200.93 1416.69 202.83 1420.49 206.63C1424.29 210.43 1426.19 215.23 1426.19 220.93C1426.19 226.53 1424.29 231.33 1420.49 235.23C1416.69 239.13 1411.89 241.03 1406.09 241.03H1391.69V263.23H1383.39V200.83H1406.09V200.93ZM1406.09 233.23C1409.49 233.23 1412.39 232.03 1414.69 229.73C1416.99 227.43 1418.09 224.43 1418.09 220.93C1418.09 217.33 1416.99 214.43 1414.69 212.13C1412.39 209.83 1409.59 208.63 1406.09 208.63H1391.69V233.23H1406.09Z" fill="#4C4C4C"/>
<path d="M1470.79 263.23L1465.69 249.23H1437.59L1432.49 263.23H1423.69L1446.99 200.83H1456.39L1479.69 263.23H1470.79ZM1440.49 241.53H1462.89L1451.69 210.73L1440.49 241.53Z" fill="#4C4C4C"/>
<path d="M1514.09 264.43C1504.69 264.43 1496.89 261.33 1490.69 255.03C1484.59 248.83 1481.49 241.13 1481.49 232.03C1481.49 222.93 1484.59 215.23 1490.69 209.03C1496.89 202.83 1504.59 199.63 1514.09 199.63C1519.79 199.63 1524.99 201.03 1529.79 203.73C1534.59 206.43 1538.29 210.13 1540.99 214.83L1533.79 219.03C1531.99 215.63 1529.39 212.83 1525.79 210.83C1522.29 208.73 1518.39 207.73 1514.09 207.73C1506.89 207.73 1500.99 210.03 1496.49 214.73C1491.99 219.33 1489.69 225.13 1489.69 232.13C1489.69 239.03 1491.99 244.83 1496.49 249.43C1500.99 254.03 1506.89 256.43 1514.09 256.43C1518.39 256.43 1522.29 255.43 1525.79 253.33C1529.29 251.23 1531.99 248.53 1533.79 245.13L1540.99 249.23C1538.39 253.83 1534.69 257.53 1529.89 260.33C1525.09 263.03 1519.79 264.43 1514.09 264.43Z" fill="#4C4C4C"/>
<path d="M1589.59 200.93V208.73H1571.19V263.23H1562.99V208.73H1544.59V200.93H1589.59Z" fill="#4C4C4C"/>
<path d="M217.986 167.63C201.686 166.23 185.486 165.03 169.286 163.23C138.486 159.73 107.986 154.73 78.4863 144.83C56.6863 137.53 35.7863 128.33 18.2863 113.03C9.48635 105.33 2.48635 96.3298 0.586351 84.4298C-1.81365 69.8298 4.58635 58.3298 14.3864 48.4298C27.2864 35.4298 43.0864 26.9298 59.6864 19.7298C79.7864 11.0298 100.786 4.92979 122.486 0.0297852C122.486 4.02979 122.486 7.7298 122.486 11.7298C118.586 12.6298 114.786 13.4298 110.986 14.2298C85.3863 20.2298 60.2863 27.6298 37.4863 41.1298C28.9863 46.1298 21.0863 51.8298 15.4863 60.1298C9.58635 68.8298 9.68635 77.6298 15.4863 85.6298C30.9863 73.9298 49.2864 66.7298 67.0863 59.6298C83.8863 53.0298 101.386 48.2298 119.086 44.9298C126.486 43.5298 156.986 40.6298 161.186 45.5298L136.986 14.4298L152.186 4.8298L169.486 42.3298H169.986L185.986 5.12979L202.786 14.7298L177.286 46.6298V47.1298L217.486 42.3298V60.4298L177.286 55.1298V55.6298L202.586 88.9298L186.586 97.9298L170.386 60.7298H169.886L153.386 97.7298L137.186 88.4298L162.186 55.9298V55.4298C161.286 52.5298 129.386 59.1298 126.586 59.7298C78.4864 69.4298 51.4863 83.9298 30.9863 99.3298C30.8863 99.3298 30.8863 99.4298 30.7863 99.4298C39.6863 105.23 48.6864 109.43 57.8864 112.93C58.9864 113.33 60.5864 112.83 61.8864 112.33C72.6864 108.63 83.3863 104.53 94.2863 101.03C103.486 98.1298 112.986 95.9298 122.686 93.3298C122.686 97.8298 122.686 101.53 122.686 104.73C106.786 109.13 91.1864 113.53 75.6864 117.83C75.7864 118.33 75.7864 118.83 75.8864 119.33C123.386 133.63 172.586 136.83 221.786 140.93C221.786 150.03 221.786 158.73 221.786 167.63C220.186 167.63 219.086 167.73 217.986 167.63ZM162.286 46.8298L162.186 46.6298C162.286 46.8298 162.286 47.1298 162.286 47.3298V46.8298Z" fill="url(#paint1_linear_73_49)"/>
<path d="M8.28638 155.63C11.0864 158.03 11.8864 160.63 11.4864 164.63C10.9864 168.33 12.1864 172.63 13.7864 176.23C17.0864 183.43 23.2864 188.13 29.6864 192.43C42.7864 201.13 57.2864 206.93 72.1864 211.73C112.086 224.63 153.186 231.03 194.686 235.23C203.586 236.13 212.386 236.83 221.486 237.53C221.486 246.63 221.486 255.43 221.486 264.43C220.186 264.43 219.186 264.53 218.286 264.43C179.286 261.53 140.686 256.23 102.886 245.93C77.7864 239.13 53.3864 230.53 31.2864 216.33C19.6864 208.83 9.18638 200.13 3.38638 187.13C-1.81362 175.53 -0.913616 164.13 5.88638 153.03C6.78638 154.03 7.38638 154.93 8.28638 155.63Z" fill="#BB0746"/>
<path d="M197.986 215.23C160.586 211.63 123.686 205.43 87.7864 194.03C65.0864 186.93 43.0864 178.13 23.8864 163.63C13.2864 155.63 4.1864 146.13 0.986402 132.63C-1.2136 123.33 0.286397 114.63 5.2864 106.33C9.3864 110.13 12.0864 113.43 11.3864 119.43C10.8864 123.13 12.8864 127.73 15.1864 130.93C18.2864 135.33 22.2864 139.23 26.5864 142.43C38.5864 151.63 52.3864 157.33 66.4864 162.23C107.586 176.43 150.186 183.03 193.286 187.43C202.686 188.43 212.086 189.13 221.586 189.93C221.586 198.93 221.586 207.53 221.586 217.03C213.386 216.53 205.686 215.93 197.986 215.23Z" fill="#DE5728"/>
<defs>
<linearGradient id="paint0_linear_73_49" x1="301.817" y1="77.1445" x2="1669.9" y2="77.1445" gradientUnits="userSpaceOnUse">
<stop offset="0.000636913" stop-color="#F5CD0C"/>
<stop offset="0.2893" stop-color="#F18B49"/>
<stop offset="0.7018" stop-color="#D74F1F"/>
<stop offset="1" stop-color="#C50751"/>
</linearGradient>
<linearGradient id="paint1_linear_73_49" x1="76.3192" y1="8.25509" x2="181.614" y2="190.632" gradientUnits="userSpaceOnUse">
<stop offset="8.07343e-08" stop-color="#F5CD0C"/>
<stop offset="0.2893" stop-color="#F17B33"/>
<stop offset="0.7018" stop-color="#F57F25"/>
<stop offset="1" stop-color="#ED3B39"/>
</linearGradient>
</defs>
</svg>
