<?xml version="1.0" encoding="utf-8"?>
<!-- Generator: Adobe Illustrator 29.5.1, SVG Export Plug-In . SVG Version: 9.03 Build 0)  -->
<svg version="1.0" id="Layer_1" xmlns="http://www.w3.org/2000/svg" xmlns:xlink="http://www.w3.org/1999/xlink" x="0px" y="0px"
	 viewBox="0 0 1920 1080" style="enable-background:new 0 0 1920 1080;" xml:space="preserve">
<style type="text/css">
	.st0{fill:url(#SVGID_1_);}
	.st1{fill:#4C4C4C;}
</style>
<g>
	<g>
		<linearGradient id="SVGID_1_" gradientUnits="userSpaceOnUse" x1="153.4447" y1="475.0488" x2="1766.5553" y2="475.0488">
			<stop  offset="6.369132e-04" style="stop-color:#F5CD0C"/>
			<stop  offset="0.2893" style="stop-color:#F18B49"/>
			<stop  offset="0.7018" style="stop-color:#D74F1F"/>
			<stop  offset="1" style="stop-color:#C50751"/>
		</linearGradient>
		<path class="st0" d="M871.3,565.1V387.7h137.9c4.5,0,20.6,9,24.9,12.2c28.3,21.4,33.5,60,30.8,93.4c-3.2,38.9-29.3,71.8-70.1,71.8
			H871.3z M900.3,536.1h100.8c5.5,0,19.7-8.9,23.4-13.7c16.5-21.5,15.5-87.9-11.8-102.8c-12.9-7-21.5-4.4-34.1-4.4
			c-25.2-0.1-50.9,1.1-75.8-1.5l-2.5,2.2V536.1z M468.8,387.7c-2.6,0-15,5.9-18.1,7.8c-16.5,9.8-24.9,27.3-26.4,46.2
			c-1.6,20.3-2.2,71.2,4.9,88.8c5.2,13.1,26.7,33,41.2,33h133.1v-27.4H473.6c-16.2,0-23.6-36.1-20.2-48.4h145.2v-27.4H453.5
			c-1.8-27.4,4-46.5,34.8-46.8c35.4-0.4,109.7,1.8,109.7,1.8l5.6-0.2v-27.3H468.8z M1131,428.8c0-10,12.1-21,20.2-10.5l92,133.8
			c15.2,22,57.3,16.5,68.8-6.8c1.7-3.5,6.1-19.6,6.1-22.9V388.5l-2.4-2.4h-26.6V524c0,0.6-4.6,10.9-5.3,11.7
			c-4.7,4.8-14,4.7-18.2-1.1c-30.7-40.1-56.2-86.4-86.5-126.4c-8.3-10.9-13.1-18.5-28.1-20.3c-16.8-2-33.2,1.8-41.8,17.5
			c-2.3,4.1-7.2,19.4-7.2,23.5v136.3h29V428.8z M1542.3,388.5c-1.4-2.3-3.2-2.2-5.6-2.5c-29.7-3.5-95.4-1.7-125.7,1.9
			c-22.1,2.6-45.5,25-47.7,47.4c-1.9,18.9-2.2,68.1,0.7,86.4c2.9,18.7,26.4,41.9,45.2,41.9h133.1v-27.4h-129.9
			c-7.5,0-20.2-14.2-20.2-21.8v-23.4c0,0,3.5,0,4,0h137.9v-27.5c0,0-1.9,0-2.4,0h-139.5v-25c0-3.4,5.4-13.3,8.2-16
			c4.2-4,16.1-9,21.6-9h120.2V388.5z M191.4,387.7c-7.5,0-22.1,7.1-27.5,12.9c-5.2,5.5-10.4,17.7-10.4,25v137.9h30.6
			c0.4-1.2-1.6-1.9-1.6-2.4v-71.8h125.8v-25l-2.4-2.4H182.5l1.9-40.9c0.6-1.7,8.1-5.9,8.6-5.9h117v-27.4H191.4z M1655.2,563.4
			l27.4,0.2V415.9c1.4-2.3,3.2-2.2,5.6-2.5c0,0,37,0.4,51.8,0.4c8,0,26.5,0,26.5,0v-25.3h-192v25h78.2l2.4,2.4v143.6 M701.1,536.1
			c-7.8,0-21.8-14-21.8-21.8V388.5l-0.2-0.8l-28.8-0.1v128.2c0,19.2,24.6,47.6,44.4,47.6h134.7v-27.4H701.1z M377.7,388.5l-2.4-2.4
			h-25.8l-2.4,2.4v167.8c0,1.5,0.9,6.2,2.4,7.3h28.2V388.5z"/>
		<g>
			<path class="st1" d="M153.4,621h9.8v73.6h-9.8V621z"/>
			<path class="st1" d="M224.7,621h9.8v73.6h-7.9l-37.8-55v55H179V621h7.6l38.2,55.2V621z"/>
			<path class="st1" d="M272.8,695.9c-6.9,0-12.7-1.6-17.6-4.8c-4.9-3.2-8.3-7.6-10.2-13.2l8.4-4.8c2.9,8.9,9.4,13.3,19.7,13.3
				c5,0,8.9-1,11.6-3.1c2.7-2.1,4-4.8,4-8.3c0-3.5-1.3-6.1-4-7.9c-2.7-1.8-7.1-3.6-13.3-5.6c-3.1-1-5.4-1.9-7-2.4
				c-1.6-0.6-3.6-1.5-6.1-2.7c-2.4-1.2-4.2-2.5-5.4-3.8c-1.2-1.3-2.3-3-3.2-5.1c-0.9-2.1-1.4-4.5-1.4-7.1c0-6.4,2.2-11.4,6.7-15.2
				c4.5-3.7,9.9-5.6,16.4-5.6c5.8,0,10.9,1.5,15.2,4.4c4.3,2.9,7.5,6.8,9.7,11.7l-8.2,4.7c-3.2-7.6-8.7-11.4-16.7-11.4
				c-4,0-7.2,1-9.7,2.9c-2.5,2-3.7,4.6-3.7,8c0,3.2,1.2,5.7,3.5,7.4c2.3,1.7,6.3,3.4,12,5.3c2,0.7,3.4,1.2,4.3,1.5
				c0.9,0.3,2.2,0.8,4,1.4c1.8,0.6,3.1,1.2,3.9,1.6c0.8,0.4,2,1,3.4,1.8c1.4,0.8,2.5,1.5,3.2,2.2c0.7,0.7,1.5,1.6,2.5,2.6
				c0.9,1,1.6,2.1,2,3.1s0.8,2.3,1.1,3.6c0.3,1.4,0.5,2.8,0.5,4.4c0,6.4-2.3,11.6-7,15.4C286.5,694,280.4,695.9,272.8,695.9z"/>
			<path class="st1" d="M309.3,621h9.8v73.6h-9.8V621z"/>
			<path class="st1" d="M405.8,658.1v4.4c0,9.6-3.3,17.6-9.9,23.9c-6.6,6.3-15.3,9.5-26.2,9.5c-11.2,0-20.5-3.7-27.8-11.1
				c-7.3-7.4-11-16.4-11-27.1c0-10.6,3.7-19.7,11-27.1c7.3-7.4,16.5-11.1,27.6-11.1c6.8,0,13,1.6,18.7,4.9
				c5.7,3.3,10.1,7.5,13.1,12.9l-8.4,4.9c-2.1-4-5.3-7.2-9.5-9.6c-4.2-2.4-8.9-3.6-14-3.6c-8.4,0-15.3,2.8-20.7,8.3
				c-5.4,5.5-8.1,12.3-8.1,20.4c0,8.1,2.7,14.9,8.1,20.4c5.4,5.5,12.5,8.2,21.1,8.2c7.4,0,13.3-1.8,17.9-5.4c4.6-3.6,7.3-8.3,8.3-14
				h-27v-8.8H405.8z"/>
			<path class="st1" d="M463.2,621h9.7v73.6h-9.7v-33.1h-35.7v33.1h-9.8V621h9.8v31.2h35.7V621z"/>
			<path class="st1" d="M535.7,621v9.2h-21.8v64.3h-9.7v-64.3h-21.7V621H535.7z"/>
			<path class="st1" d="M586.6,621h9.8v73.6h-9.8V621z"/>
			<path class="st1" d="M657.9,621h9.8v73.6h-7.9l-37.8-55v55h-9.8V621h7.6l38.2,55.2V621z"/>
			<path class="st1" d="M730.5,621v9.2h-21.8v64.3h-9.7v-64.3h-21.6V621H730.5z"/>
			<path class="st1" d="M750,685.3h34.2v9.2h-43.9V621h43.4v9.2H750v22.6h31v9.1h-31V685.3z"/>
			<path class="st1" d="M805.7,685.3h31.7v9.2h-41.5V621h9.8V685.3z"/>
			<path class="st1" d="M856.9,685.3h31.7v9.2h-41.5V621h9.8V685.3z"/>
			<path class="st1" d="M898.5,621h9.8v73.6h-9.8V621z"/>
			<path class="st1" d="M994.9,658.1v4.4c0,9.6-3.3,17.6-9.9,23.9c-6.6,6.3-15.3,9.5-26.2,9.5c-11.2,0-20.5-3.7-27.8-11.1
				c-7.3-7.4-11-16.4-11-27.1c0-10.6,3.7-19.7,11-27.1c7.3-7.4,16.5-11.1,27.6-11.1c6.8,0,13,1.6,18.7,4.9
				c5.7,3.3,10.1,7.5,13.1,12.9l-8.4,4.9c-2.1-4-5.3-7.2-9.5-9.6c-4.2-2.4-8.9-3.6-14-3.6c-8.4,0-15.3,2.8-20.7,8.3
				c-5.4,5.5-8.1,12.3-8.1,20.4c0,8.1,2.7,14.9,8.1,20.4c5.4,5.5,12.5,8.2,21.1,8.2c7.4,0,13.3-1.8,17.9-5.4c4.6-3.6,7.3-8.3,8.3-14
				h-27v-8.8H994.9z"/>
			<path class="st1" d="M1016.6,685.3h34.2v9.2h-43.9V621h43.4v9.2h-33.6v22.6h31v9.1h-31V685.3z"/>
			<path class="st1" d="M1108.2,621h9.8v73.6h-7.9l-37.8-55v55h-9.8V621h7.6l38.2,55.2V621z"/>
			<path class="st1" d="M1168.3,695.9c-11.1,0-20.3-3.7-27.6-11c-7.3-7.4-10.9-16.4-10.9-27.1s3.6-19.8,10.9-27.1
				c7.3-7.4,16.4-11,27.6-11c6.7,0,12.9,1.6,18.5,4.8c5.6,3.2,10,7.6,13.2,13l-8.5,4.9c-2.1-4.1-5.2-7.3-9.4-9.7
				c-4.2-2.4-8.8-3.6-13.8-3.6c-8.5,0-15.4,2.7-20.8,8.2c-5.4,5.5-8,12.3-8,20.5c0,8.1,2.7,14.9,8,20.4c5.4,5.5,12.3,8.2,20.8,8.2
				c5,0,9.7-1.2,13.8-3.6c4.2-2.4,7.3-5.6,9.4-9.6l8.5,4.8c-3.1,5.5-7.5,9.8-13.1,13.1C1181.3,694.3,1175.1,695.9,1168.3,695.9z"/>
			<path class="st1" d="M1220.9,685.3h34.2v9.2h-43.9V621h43.4v9.2h-33.6v22.6h31v9.1h-31V685.3z"/>
			<path class="st1" d="M1318.6,621h9.8v73.6h-9.8V621z"/>
			<path class="st1" d="M1413,621v73.6h-9.7V637l-24.1,40l-1.2,0l-24.1-40.1v57.5h-9.8V621h11l23.5,39.1l23.3-39.1H1413z"/>
			<path class="st1" d="M1455.5,621c6.8,0,12.5,2.3,17,6.8c4.5,4.5,6.8,10.1,6.8,16.9c0,6.7-2.3,12.3-6.8,16.8
				c-4.5,4.6-10.2,6.8-17,6.8h-16.9v26.3h-9.8V621H1455.5z M1455.5,659.1c4.1,0,7.4-1.4,10.1-4.2c2.7-2.8,4-6.2,4-10.4
				c0-4.2-1.3-7.7-4-10.4c-2.7-2.7-6-4.1-10.1-4.1h-16.9v29H1455.5z"/>
			<path class="st1" d="M1531.8,694.5l-6-16.5h-33.1l-6,16.5h-10.4l27.4-73.6h11l27.4,73.6H1531.8z M1496,668.9h26.4l-13.2-36.3
				L1496,668.9z"/>
			<path class="st1" d="M1582.8,695.9c-11.1,0-20.3-3.7-27.6-11c-7.3-7.4-10.9-16.4-10.9-27.1s3.6-19.8,10.9-27.1
				c7.3-7.4,16.4-11,27.6-11c6.7,0,12.9,1.6,18.5,4.8c5.6,3.2,10,7.6,13.2,13l-8.5,4.9c-2.1-4.1-5.2-7.3-9.4-9.7
				c-4.2-2.4-8.8-3.6-13.8-3.6c-8.5,0-15.4,2.7-20.8,8.2c-5.4,5.5-8,12.3-8,20.5c0,8.1,2.7,14.9,8,20.4c5.4,5.5,12.3,8.2,20.8,8.2
				c5,0,9.6-1.2,13.8-3.6c4.2-2.4,7.3-5.6,9.4-9.6l8.5,4.8c-3.1,5.5-7.5,9.8-13.1,13.1C1595.8,694.3,1589.6,695.9,1582.8,695.9z"/>
			<path class="st1" d="M1671.8,621v9.2h-21.8v64.3h-9.7v-64.3h-21.6V621H1671.8z"/>
		</g>
	</g>
</g>
</svg>
