<?xml version="1.0" encoding="utf-8"?>
<!-- Generator: Adobe Illustrator 29.5.1, SVG Export Plug-In . SVG Version: 9.03 Build 0)  -->
<svg version="1.0" id="Layer_1" xmlns="http://www.w3.org/2000/svg" xmlns:xlink="http://www.w3.org/1999/xlink" x="0px" y="0px"
	 viewBox="0 0 1920 1080" style="enable-background:new 0 0 1920 1080;" xml:space="preserve">
<style type="text/css">
	.st0{fill:url(#SVGID_1_);}
	.st1{fill:#BB0746;}
	.st2{fill:#DE5728;}
</style>
<g>
	<g>
		
			<linearGradient id="SVGID_1_" gradientUnits="userSpaceOnUse" x1="837.4807" y1="-14140.5557" x2="1211.9912" y2="-14789.2266" gradientTransform="matrix(1 0 0 -1 0 -14041.5059)">
			<stop  offset="8.073434e-08" style="stop-color:#F5CD0C"/>
			<stop  offset="0.2893" style="stop-color:#F17B33"/>
			<stop  offset="0.7018" style="stop-color:#F57F25"/>
			<stop  offset="1" style="stop-color:#ED3B39"/>
		</linearGradient>
		<path class="st0" d="M1341.5,665.8c-57.8-5.1-115.7-9.1-173.4-15.6c-109.5-12.4-218.1-30.3-323-65.6
			c-77.4-26.1-151.8-58.7-214.3-113.2c-31.3-27.3-56.1-59.4-63-101.6c-8.5-51.9,14.2-92.8,49.1-128.2
			c45.8-46.4,102.1-76.3,161.2-101.9c71.6-31,146.2-52.5,223.2-69.9c0,14.3,0,27.5,0,41.6c-13.7,3-27.3,5.9-40.7,9.1
			c-91.1,21.2-180.2,47.8-261.6,95.5c-30.1,17.7-58.2,38.2-78.1,67.6c-20.9,30.8-20.7,62.4-0.1,90.5c55-41.5,120.1-67.3,183.7-92.3
			c59.8-23.6,122-40.7,185.1-52.3c26.2-4.8,134.9-15.3,149.9,2.2l-86.2-110.8l53.9-34.1l61.5,133.4h1.9l56.8-132.5l59.6,34.1
			l-90.8,113.5v1.9l142.9-17v64.3l-142.9-18.9v1.9l89.9,118.3l-56.8,32.2l-57.7-132.5h-1.9L1111,417l-57.7-33.1l88.9-115.4
			c0,0,0-1.9,0-1.9c-3.2-10.2-116.5,13.3-126.7,15.3c-171.2,34.6-267.2,86-340.1,140.7c-0.2,0.2-0.5,0.3-0.7,0.4
			c31.7,20.8,63.6,35.5,96.5,47.9c3.9,1.5,9.6-0.4,14.1-2c38.4-13.3,76.4-27.9,115.1-40.1c32.9-10.4,66.6-18.1,101-27.3
			c0,15.9,0,29.1,0,40.5c-56.5,15.7-111.9,31.2-167.3,46.6c0.3,1.8,0.5,3.6,0.8,5.5c169,50.9,344.1,62.3,519,76.7
			c0,32.3,0,63.3,0,95C1349.2,665.8,1345.3,666.1,1341.5,665.8z M1143.2,236.3l-0.5-0.6c0.3,0.8,0.5,1.6,0.5,2.5V236.3z"/>
		<path class="st1" d="M595.4,623.3c10.1,8.6,13,17.8,11.3,32c-1.6,13.3,2.5,28.6,8.2,41.2c11.7,25.6,33.9,42.3,56.7,57.6
			c46.6,31.1,98.1,51.6,151.1,68.8c141.8,45.9,288.1,68.6,435.8,83.5c31.5,3.2,63.1,5.5,95.1,8.3c0,32.3,0,63.7,0,95.6
			c-4.6,0-8,0.2-11.4,0c-138.7-10.1-276.1-29-410.5-65.7c-89.2-24.3-176.1-54.9-254.5-105.3c-41.3-26.6-78.7-57.7-99.3-103.9
			c-18.5-41.3-15.2-81.7,8.8-121.4C590,617.6,592.4,620.7,595.4,623.3z"/>
		<path class="st2" d="M1270.1,835.1c-133-12.9-264.3-35-392.1-75.3c-80.6-25.4-159-56.4-227.2-108c-37.8-28.5-69.9-62.1-81.4-110.2
			c-7.8-32.9-2.7-64,15.3-93.5c14.5,13.4,24.3,25.3,21.7,46.6c-1.6,13.1,5.3,29.6,13.4,41.1c10.9,15.5,25.2,29.4,40.4,41
			c42.6,32.6,91.7,53,142,70.3c146.2,50.3,297.8,74,451,89.7c33.4,3.4,66.8,6,100.8,9c0,32,0,62.7,0,96.3
			C1325.2,839.8,1297.6,837.8,1270.1,835.1z"/>
	</g>
</g>
</svg>
